<?xml version="1.0" encoding="UTF-8"?>
<svg width="175px" height="176px" viewBox="0 0 175 176" version="1.1" xmlns="http://www.w3.org/2000/svg" xmlns:xlink="http://www.w3.org/1999/xlink">
    <title>Key Advantages 3</title>
    <defs>
        <radialGradient cx="50%" cy="0%" fx="50%" fy="0%" r="90.2400517%" id="radialGradient-1">
            <stop stop-color="#A2D7FF" offset="0%"></stop>
            <stop stop-color="#9AA7FF" stop-opacity="0.00384609799" offset="99.6153902%"></stop>
            <stop stop-color="#71BCFF" stop-opacity="0" offset="100%"></stop>
        </radialGradient>
        <radialGradient cx="0%" cy="9.60170324%" fx="0%" fy="9.60170324%" r="139.345317%" gradientTransform="translate(0.000000,0.096017),scale(0.496985,1.000000),rotate(31.394499),translate(-0.000000,-0.096017)" id="radialGradient-2">
            <stop stop-color="#37F8DD" offset="0%"></stop>
            <stop stop-color="#5C64FF" offset="100%"></stop>
        </radialGradient>
        <linearGradient x1="89.6983733%" y1="6.62369451%" x2="16.0187695%" y2="93.6255152%" id="linearGradient-3">
            <stop stop-color="#40ECE1" offset="0%"></stop>
            <stop stop-color="#5C64FF" offset="100%"></stop>
        </linearGradient>
        <linearGradient x1="56.913478%" y1="-11.8716574%" x2="73.706911%" y2="100%" id="linearGradient-4">
            <stop stop-color="#3F90F6" offset="0%"></stop>
            <stop stop-color="#34D2FF" offset="50.5208%"></stop>
            <stop stop-color="#4F56E4" offset="100%"></stop>
        </linearGradient>
        <linearGradient x1="56.9353414%" y1="-11.8716574%" x2="73.7818826%" y2="100%" id="linearGradient-5">
            <stop stop-color="#3F90F6" offset="0%"></stop>
            <stop stop-color="#99E9FF" offset="50.5208%"></stop>
            <stop stop-color="#5C64FF" offset="100%"></stop>
        </linearGradient>
        <radialGradient cx="0%" cy="9.60170324%" fx="0%" fy="9.60170324%" r="160.60279%" gradientTransform="translate(0.000000,0.096017),scale(1.000000,0.992912),rotate(46.521748),translate(-0.000000,-0.096017)" id="radialGradient-6">
            <stop stop-color="#CAEBFA" offset="0%"></stop>
            <stop stop-color="#5C64FF" offset="100%"></stop>
        </radialGradient>
        <linearGradient x1="56.9748308%" y1="-11.8716574%" x2="73.9172952%" y2="100%" id="linearGradient-7">
            <stop stop-color="#3F90F6" offset="0%"></stop>
            <stop stop-color="#D7E9FF" offset="50.5208%"></stop>
            <stop stop-color="#5C64FF" offset="100%"></stop>
        </linearGradient>
        <linearGradient x1="16.3947615%" y1="0%" x2="78.440441%" y2="79.1775733%" id="linearGradient-8">
            <stop stop-color="#5C64FF" offset="0%"></stop>
            <stop stop-color="#C4E4FA" offset="100%"></stop>
        </linearGradient>
        <linearGradient x1="26.4111171%" y1="17.375958%" x2="100%" y2="79.6542337%" id="linearGradient-9">
            <stop stop-color="#4FC8F8" offset="0%"></stop>
            <stop stop-color="#733FF1" offset="100%"></stop>
        </linearGradient>
    </defs>
    <g id="页面完整版+配图" stroke="none" stroke-width="1" fill="none" fill-rule="evenodd">
        <g id="About备份-3" transform="translate(-1054.000000, -1594.000000)">
            <g id="第三屏" transform="translate(128.000000, 1420.000000)">
                <g id="Key-Advantages-3" transform="translate(926.041133, 174.617916)">
                    <g id="编组-6备份-2" transform="translate(0.000000, 0.805879)" fill="url(#radialGradient-1)" fill-rule="nonzero">
                        <circle id="椭圆形" cx="87" cy="87" r="87"></circle>
                    </g>
                    <g id="编组-5" transform="translate(34.958867, 38.382084)">
                        <g id="编组-24" transform="translate(2.635998, 11.972851)">
                            <path d="M18.9929296,30.5308037 C27.9840913,30.5308037 35.5088299,36.8438792 37.4412773,45.30688 L76.8141149,45.30688 L76.8141149,68.6795509 L19.3440012,68.6795509 L18.9929296,68.6857646 C8.51359704,68.6857646 0.0412757298,60.1481999 0.0412757298,49.5943034 C0.0412757298,39.0652616 8.51359704,30.5308037 18.9929296,30.5308037 Z" id="路径" fill="url(#radialGradient-2)" fill-rule="nonzero" opacity="0.616074673"></path>
                            <path d="M86.9237349,34.330455 C86.9237349,53.3131771 71.6598864,68.6888714 52.8418262,68.6888714 C33.9926977,68.6888714 18.7288492,53.3100703 18.7288492,34.3273481 C18.7288492,15.344626 33.9958044,-1.48299665e-13 52.8418262,-1.48299665e-13 C71.6598864,-1.48299665e-13 86.9237349,15.3477328 86.9237349,34.330455" id="路径" fill="url(#linearGradient-3)" fill-rule="nonzero" opacity="0.768963481"></path>
                            <path d="M78.5540962,56.9627406 C72.7208834,61.5019698 65.3760706,64.2075785 57.3957918,64.2075785 C38.4156185,64.2075785 23.0292504,48.9027905 23.0292504,30.0236312 C23.0292504,21.3475507 26.2786102,13.4263106 31.6330472,7.39852129 C23.5926867,13.6553434 18.4248101,23.396282 18.4248101,34.3377325 C18.4248101,53.2170616 33.8113489,68.5216798 52.7913515,68.5216798 C63.0491009,68.5216798 72.2571281,64.051551 78.5540962,56.9627406 Z" id="路径" fill="url(#linearGradient-4)"></path>
                            <path d="M33.7916649,62.2142527 C30.5134957,64.7612004 26.3858324,66.2793092 21.9010476,66.2793092 C11.2345039,66.2793092 2.58761934,57.6918393 2.58761934,47.0988005 C2.58761934,42.2306781 4.41370583,37.7860944 7.42281091,34.4039202 C2.90426122,37.914604 0,43.380215 0,49.5194296 C0,60.1125636 8.64698047,68.6999383 19.3134282,68.6999383 C25.0781139,68.6999383 30.2528729,66.1917626 33.7916649,62.2142527 Z" id="路径备份-9" fill="url(#linearGradient-5)"></path>
                            <path d="M99.456681,45.2292093 C99.456681,58.1815774 89.0270577,68.6826577 76.1710014,68.6826577 C63.3087314,68.6826577 52.8853218,58.1815774 52.8853218,45.2292093 C52.8853218,32.2799481 63.3118383,21.7788678 76.1710014,21.7788678 C89.0270577,21.7788678 99.4535742,32.2799482 99.4535742,45.2292093" id="路径" fill="url(#radialGradient-6)" fill-rule="nonzero" opacity="0.810228924"></path>
                            <path d="M93.4621836,60.6277701 C89.4608889,63.7277315 84.4227115,65.5754643 78.948636,65.5754643 C65.9291783,65.5754643 55.3748927,55.123414 55.3748927,42.2303296 C55.3748927,36.3052014 57.6037924,30.895574 61.2766707,26.779035 C55.7613821,31.0519867 52.216475,37.704335 52.216475,45.1765451 C52.216475,58.0697455 62.7708776,68.5216798 75.7902183,68.5216798 C82.8265257,68.5216798 89.1427757,65.4689089 93.4621836,60.6277701 Z" id="路径备份-10" fill="url(#linearGradient-7)"></path>
                        </g>
                        <g id="编组-3" transform="translate(94.405229, 10.000000) scale(-1, 1) translate(-94.405229, -10.000000) translate(84.405229, 0.000000)" fill-rule="nonzero">
                            <path d="M1.99547511,9.97737557 C1.99547511,14.3856575 5.56909367,17.959276 9.97737557,17.959276 C14.3856575,17.959276 17.959276,14.3856575 17.959276,9.97737557 C17.959276,5.56909367 14.3856575,1.99547511 9.97737557,1.99547511 C5.56909367,1.99547511 1.99547511,5.56909367 1.99547511,9.97737557 Z" id="路径" fill="url(#linearGradient-8)" opacity="0.404932776"></path>
                            <path d="M9.97737557,19.9547511 C4.48181576,19.9547511 0,15.4729354 0,9.97737557 C0,4.48181576 4.48181576,0 9.97737557,0 C15.4729354,0 19.9547511,4.48181576 19.9547511,9.97737557 C19.9547511,15.4729354 15.4862741,19.9547511 9.97737557,19.9547511 Z M9.97737557,2.73444116 C5.98909309,2.73444116 2.7477799,5.97575435 2.7477799,9.96403683 C2.7477799,13.9523193 5.98909309,17.1936325 9.97737557,17.1936325 C13.965658,17.1936325 17.2069712,13.9523193 17.2069712,9.96403683 C17.2069712,5.97575435 13.965658,2.73444116 9.97737557,2.73444116 Z" id="形状" fill="url(#linearGradient-9)" opacity="0.210814862"></path>
                        </g>
                        <g id="编组-2" transform="translate(6.613374, 23.959276) scale(-1, 1) translate(-6.613374, -23.959276) translate(0.613374, 17.959276)" fill-rule="nonzero">
                            <path d="M1.19728507,5.98642534 C1.19728507,8.63139448 3.3414562,10.7755656 5.98642534,10.7755656 C8.63139448,10.7755656 10.7755656,8.63139448 10.7755656,5.98642534 C10.7755656,3.3414562 8.63139448,1.19728507 5.98642534,1.19728507 C3.3414562,1.19728507 1.19728507,3.3414562 1.19728507,5.98642534 Z" id="路径备份" fill="url(#linearGradient-8)" opacity="0.404932776"></path>
                            <path d="M5.98642534,11.9728507 C2.68908946,11.9728507 0,9.28376122 0,5.98642534 C0,2.68908946 2.68908946,0 5.98642534,0 C9.28376122,0 11.9728507,2.68908946 11.9728507,5.98642534 C11.9728507,9.28376122 9.29176446,11.9728507 5.98642534,11.9728507 Z M5.98642534,1.6406647 C3.59345585,1.6406647 1.64866794,3.58545261 1.64866794,5.9784221 C1.64866794,8.37139158 3.59345585,10.3161795 5.98642534,10.3161795 C8.37939483,10.3161795 10.3241827,8.37139158 10.3241827,5.9784221 C10.3241827,3.58545261 8.37939483,1.6406647 5.98642534,1.6406647 Z" id="形状备份" fill="url(#linearGradient-9)" opacity="0.210814862"></path>
                        </g>
                        <g id="编组-4" transform="translate(71.464052, 90.809955) scale(-1, 1) translate(-71.464052, -90.809955) translate(64.464052, 83.809955)" fill-rule="nonzero">
                            <path d="M1.39683258,6.9841629 C1.39683258,10.0699602 3.89836557,12.5714932 6.9841629,12.5714932 C10.0699602,12.5714932 12.5714932,10.0699602 12.5714932,6.9841629 C12.5714932,3.89836557 10.0699602,1.39683258 6.9841629,1.39683258 C3.89836557,1.39683258 1.39683258,3.89836557 1.39683258,6.9841629 Z" id="路径备份-2" fill="url(#linearGradient-8)" opacity="0.404932776"></path>
                            <path d="M6.9841629,13.9683258 C3.13727103,13.9683258 0,10.8310548 0,6.9841629 C0,3.13727103 3.13727103,0 6.9841629,0 C10.8310548,0 13.9683258,3.13727103 13.9683258,6.9841629 C13.9683258,10.8310548 10.8403919,13.9683258 6.9841629,13.9683258 Z M6.9841629,1.91410882 C4.19236516,1.91410882 1.92344593,4.18302804 1.92344593,6.97482578 C1.92344593,9.76662351 4.19236516,12.0355427 6.9841629,12.0355427 C9.77596063,12.0355427 12.0448799,9.76662351 12.0448799,6.97482578 C12.0448799,4.18302804 9.77596063,1.91410882 6.9841629,1.91410882 Z" id="形状备份-2" fill="url(#linearGradient-9)" opacity="0.210814862"></path>
                        </g>
                    </g>
                </g>
            </g>
        </g>
    </g>
</svg>