<?xml version="1.0" encoding="UTF-8"?>
<svg width="175px" height="175px" viewBox="0 0 175 175" version="1.1" xmlns="http://www.w3.org/2000/svg" xmlns:xlink="http://www.w3.org/1999/xlink">
    <title>Key Advantages 2</title>
    <defs>
        <radialGradient cx="50%" cy="0%" fx="50%" fy="0%" r="90.2400517%" id="radialGradient-1">
            <stop stop-color="#A2D7FF" offset="0%"></stop>
            <stop stop-color="#9AA7FF" stop-opacity="0.00384609799" offset="99.6153902%"></stop>
            <stop stop-color="#71BCFF" stop-opacity="0" offset="100%"></stop>
        </radialGradient>
        <linearGradient x1="50%" y1="0%" x2="50%" y2="100%" id="linearGradient-2">
            <stop stop-color="#70E7FF" stop-opacity="0" offset="0%"></stop>
            <stop stop-color="#B0B4FF" offset="100%"></stop>
        </linearGradient>
        <linearGradient x1="16.3947615%" y1="0%" x2="78.440441%" y2="79.1775733%" id="linearGradient-3">
            <stop stop-color="#5C64FF" offset="0%"></stop>
            <stop stop-color="#C4E4FA" offset="100%"></stop>
        </linearGradient>
        <linearGradient x1="26.4111171%" y1="17.375958%" x2="100%" y2="79.6542337%" id="linearGradient-4">
            <stop stop-color="#CFCBF8" offset="0%"></stop>
            <stop stop-color="#733FF1" offset="100%"></stop>
        </linearGradient>
        <radialGradient cx="0%" cy="9.60170324%" fx="0%" fy="9.60170324%" r="160.519068%" gradientTransform="translate(0.000000,0.096017),scale(1.000000,0.581579),rotate(57.110518),translate(-0.000000,-0.096017)" id="radialGradient-5">
            <stop stop-color="#37F8DD" offset="0%"></stop>
            <stop stop-color="#5C64FF" offset="100%"></stop>
        </radialGradient>
        <linearGradient x1="63.6225777%" y1="6.62369451%" x2="38.3392715%" y2="93.6255152%" id="linearGradient-6">
            <stop stop-color="#40ECE1" offset="0%"></stop>
            <stop stop-color="#5C64FF" offset="100%"></stop>
        </linearGradient>
        <radialGradient cx="49.9991572%" cy="-0.00115321196%" fx="49.9991572%" fy="-0.00115321196%" r="116.929708%" gradientTransform="translate(0.499992,-0.000012),scale(1.000000,0.581579),rotate(93.694434),translate(-0.499992,0.000012)" id="radialGradient-7">
            <stop stop-color="#36FFDB" offset="0%"></stop>
            <stop stop-color="#426CFF" offset="100%"></stop>
        </radialGradient>
        <linearGradient x1="50%" y1="0%" x2="50%" y2="100%" id="linearGradient-8">
            <stop stop-color="#83EAFF" stop-opacity="0" offset="0%"></stop>
            <stop stop-color="#86B5FF" offset="100%"></stop>
        </linearGradient>
        <linearGradient x1="50%" y1="0%" x2="50%" y2="100%" id="linearGradient-9">
            <stop stop-color="#BFF4FF" stop-opacity="0" offset="0%"></stop>
            <stop stop-color="#54A9FF" offset="100%"></stop>
        </linearGradient>
    </defs>
    <g id="页面完整版+配图" stroke="none" stroke-width="1" fill="none" fill-rule="evenodd">
        <g id="About备份-3" transform="translate(-633.000000, -1595.000000)">
            <g id="第三屏" transform="translate(128.000000, 1420.000000)">
                <g id="Key-Advantages-2" transform="translate(505.041133, 175.617916)">
                    <g id="编组-6备份-2" fill="url(#radialGradient-1)" fill-rule="nonzero">
                        <circle id="椭圆形" cx="87" cy="87" r="87"></circle>
                    </g>
                    <g id="编组-8备份-2" transform="translate(37.000000, 41.000000)">
                        <ellipse id="椭圆形备份-4" stroke="url(#linearGradient-2)" stroke-width="1.89958713" cx="49.7058633" cy="40.7700503" rx="49.7058633" ry="17.0962842"></ellipse>
                        <g id="编组-2" transform="translate(7.598349, 45.202420)" fill-rule="nonzero">
                            <path d="M1.33217799,7.32697893 C1.33217799,10.6378161 4.01614179,13.3217799 7.32697893,13.3217799 C10.6378161,13.3217799 13.3217799,10.6378161 13.3217799,7.32697893 C13.3217799,4.01614179 10.6378161,1.33217799 7.32697893,1.33217799 C4.01614179,1.33217799 1.33217799,4.01614179 1.33217799,7.32697893 Z" id="路径备份" fill="url(#linearGradient-3)" opacity="0.9"></path>
                            <path d="M7.32697893,14.6539579 C3.29126326,14.6539579 0,11.3626946 0,7.32697893 C0,3.29126326 3.29126326,0 7.32697893,0 C11.3626946,0 14.6539579,3.29126326 14.6539579,7.32697893 C14.6539579,11.3626946 11.37249,14.6539579 7.32697893,14.6539579 Z M7.32697893,2.00806241 C4.39814645,2.00806241 2.01785783,4.38835102 2.01785783,7.31718351 C2.01785783,10.246016 4.39814645,12.6263046 7.32697893,12.6263046 C10.2558114,12.6263046 12.6361,10.246016 12.6361,7.31718351 C12.6361,4.38835102 10.2558114,2.00806241 7.32697893,2.00806241 Z" id="形状备份" fill="url(#linearGradient-4)" opacity="0.3"></path>
                        </g>
                        <g id="编组-2备份-3" opacity="0.515942951" transform="translate(84.848225, 26.206549)" fill-rule="nonzero">
                            <path d="M0.777103826,4.27407104 C0.777103826,6.20539271 2.34274938,7.77103826 4.27407104,7.77103826 C6.20539271,7.77103826 7.77103826,6.20539271 7.77103826,4.27407104 C7.77103826,2.34274938 6.20539271,0.777103826 4.27407104,0.777103826 C2.34274938,0.777103826 0.777103826,2.34274938 0.777103826,4.27407104 Z" id="路径备份" fill="url(#linearGradient-3)" opacity="0.9"></path>
                            <path d="M4.27407104,8.54814209 C1.91990357,8.54814209 0,6.62823852 0,4.27407104 C0,1.91990357 1.91990357,0 4.27407104,0 C6.62823852,0 8.54814209,1.91990357 8.54814209,4.27407104 C8.54814209,6.62823852 6.63395252,8.54814209 4.27407104,8.54814209 Z M4.27407104,1.17136974 C2.56558543,1.17136974 1.17708374,2.55987143 1.17708374,4.26835705 C1.17708374,5.97684266 2.56558543,7.36534435 4.27407104,7.36534435 C5.98255666,7.36534435 7.37105835,5.97684266 7.37105835,4.26835705 C7.37105835,2.55987143 5.98255666,1.17136974 4.27407104,1.17136974 Z" id="形状备份" fill="url(#linearGradient-4)" opacity="0.3"></path>
                        </g>
                        <g id="kuaisu备份" transform="translate(67.628398, 45.030442) rotate(-360.000000) translate(-67.628398, -45.030442) translate(37.628398, 0.030442)" fill-rule="nonzero">
                            <path d="M56.2694339,0.322457648 L18.7718384,0.322457648 C17.4065022,0.300563582 16.2253728,1.26908969 15.9797612,2.61233715 L8.80412311,41.7293375 C8.64391808,42.5564103 8.86571517,43.411602 9.4076968,44.0565602 C9.94967843,44.7015183 10.7538945,45.0672823 11.5962002,45.0519093 L15.6167912,45.0519093 L8.99956846,85.2578196 C8.91861123,85.8522902 9.22653005,86.4320094 9.76440822,86.6977845 C10.3022864,86.9635596 10.9498267,86.8559496 11.372834,86.430492 L52.835179,41.7572582 C53.2074319,41.3564628 53.3113158,40.77519 53.1009312,40.2702668 C52.8905465,39.7653437 52.4046594,39.4298088 51.8579521,39.4119134 L43.6492454,39.4119134 L58.8381449,4.23174183 C59.2155695,3.36696906 59.1307007,2.37007455 58.6125255,1.58154702 C58.0943502,0.793019492 57.2129753,0.3195433 56.2694339,0.322457648 Z" id="路径" fill="url(#radialGradient-5)" opacity="0.269349564"></path>
                            <path d="M52.0008686,1.79894588 L14.503273,1.79894588 C13.1379369,1.77705188 11.9568075,2.74557797 11.7111959,4.08882538 L4.53555767,43.2058257 C4.37535264,44.0328985 4.59714975,44.8880903 5.13913141,45.5330485 C5.68111307,46.1780066 6.48532922,46.5437706 7.32763487,46.5283975 L11.3482259,46.5283975 L4.73100316,86.7343079 C4.65004593,87.3287785 4.95796475,87.9084976 5.49584292,88.1742727 C6.0337211,88.4400478 6.68126137,88.3324379 7.10426866,87.9069803 L48.5666137,43.2337464 C48.9388666,42.832951 49.0427505,42.2516782 48.8323658,41.746755 C48.6219812,41.2418318 48.136094,40.9062969 47.5893867,40.8884016 L39.38068,40.8884016 L54.5695796,5.70823006 C54.9470042,4.8434573 54.8621354,3.84656278 54.3439601,3.05803526 C53.8257849,2.26950773 52.94441,1.79603153 52.0008686,1.79894588 Z" id="路径" fill="url(#linearGradient-6)" opacity="0.491006541"></path>
                            <path d="M47.7323033,3.27543412 L10.2347077,3.27543412 C8.86937155,3.25354012 7.68824217,4.22206621 7.44263059,5.56531362 L0.266992374,44.6823139 C0.106787345,45.5093868 0.328584441,46.3645785 0.870566069,47.0095366 C1.4125477,47.6544948 2.21676381,48.0202588 3.05906944,48.0048857 L7.07966048,48.0048857 L0.462437728,88.2107961 C0.381480425,88.8052667 0.689399256,89.384986 1.2272775,89.6507611 C1.76515574,89.9165362 2.41269609,89.8089262 2.83570336,89.3834685 L44.2980484,44.7102347 C44.6703013,44.3094393 44.7741852,43.7281664 44.5638005,43.2232433 C44.3534159,42.7183201 43.8675287,42.3827852 43.3208214,42.3648899 L35.1121147,42.3648899 L50.3010141,7.1847183 C50.6784387,6.31994555 50.59357,5.32305107 50.0753948,4.53452355 C49.5572195,3.74599602 48.6758447,3.27251981 47.7323033,3.27543412 L47.7323033,3.27543412 Z" id="路径" fill="url(#radialGradient-7)" opacity="0.771575218"></path>
                        </g>
                        <ellipse id="椭圆形备份-5" stroke="url(#linearGradient-8)" stroke-width="1.40710158" opacity="0.822924237" cx="50.0224611" cy="59.7659216" rx="36.7253512" ry="12.6639142"></ellipse>
                        <ellipse id="椭圆形备份-6" stroke="url(#linearGradient-9)" stroke-width="1.48570129" opacity="0.419263263" cx="50.339059" cy="77.4954015" rx="22.4784477" ry="7.59834852"></ellipse>
                        <g id="编组-7备份" opacity="0.767055778" transform="translate(65.219158, 63.565096)" fill-rule="nonzero">
                            <path d="M0.914975321,6.64467514 C0.914975321,9.80910098 3.48024931,12.374375 6.64467514,12.374375 C9.80910098,12.374375 12.374375,9.80910098 12.374375,6.64467514 C12.374375,3.48024931 9.80910098,0.914975321 6.64467514,0.914975321 C3.48024931,0.914975321 0.914975321,3.48024931 0.914975321,6.64467514 Z" id="路径" fill="url(#linearGradient-3)" opacity="0.9"></path>
                            <path d="M6.64467514,13.2893503 C2.97589061,13.2893503 -4.04921351e-14,10.3045764 -4.04921351e-14,6.64467514 C-4.04921351e-14,2.98477386 2.98477386,-1.12478153e-15 6.64467514,-1.12478153e-15 C10.3045764,-1.12478153e-15 13.2893503,2.98477386 13.2893503,6.64467514 C13.2893503,10.3045764 10.3134597,13.2893503 6.64467514,13.2893503 Z M6.64467514,1.82995064 C3.98858174,1.82995064 1.82995064,3.98858174 1.82995064,6.64467514 C1.82995064,9.30076855 3.98858174,11.4593996 6.64467514,11.4593996 C9.30076855,11.4593996 11.4593996,9.30076855 11.4593996,6.64467514 C11.4593996,3.98858174 9.30076855,1.82995064 6.64467514,1.82995064 Z" id="形状" fill="url(#linearGradient-4)" opacity="0.3"></path>
                        </g>
                        <g id="编组-7备份-9" transform="translate(33.559373, 80.028184)" fill-rule="nonzero">
                            <path d="M0.52284304,3.79695723 C0.52284304,5.60520056 1.98871389,7.07107141 3.79695723,7.07107141 C5.60520056,7.07107141 7.07107141,5.60520056 7.07107141,3.79695723 C7.07107141,1.98871389 5.60520056,0.52284304 3.79695723,0.52284304 C1.98871389,0.52284304 0.52284304,1.98871389 0.52284304,3.79695723 Z" id="路径" fill="url(#linearGradient-3)" opacity="0.9"></path>
                            <path d="M3.79695723,7.59391445 C1.70050892,7.59391445 -2.31383629e-14,5.88832939 -2.31383629e-14,3.79695723 C-2.31383629e-14,1.70558506 1.70558506,-6.42732303e-16 3.79695723,-6.42732303e-16 C5.88832939,-6.42732303e-16 7.59391445,1.70558506 7.59391445,3.79695723 C7.59391445,5.88832939 5.89340553,7.59391445 3.79695723,7.59391445 Z M3.79695723,1.04568608 C2.27918956,1.04568608 1.04568608,2.27918956 1.04568608,3.79695723 C1.04568608,5.31472489 2.27918956,6.54822837 3.79695723,6.54822837 C5.31472489,6.54822837 6.54822837,5.31472489 6.54822837,3.79695723 C6.54822837,2.27918956 5.31472489,1.04568608 3.79695723,1.04568608 Z" id="形状" fill="url(#linearGradient-4)" opacity="0.3"></path>
                        </g>
                    </g>
                </g>
            </g>
        </g>
    </g>
</svg>