<?xml version="1.0" encoding="UTF-8"?>
<svg width="13px" height="11px" viewBox="0 0 13 11" version="1.1" xmlns="http://www.w3.org/2000/svg" xmlns:xlink="http://www.w3.org/1999/xlink">
    <title>jiantou blue</title>
    <g id="Page-1" stroke="none" stroke-width="1" fill="none" fill-rule="evenodd">
        <g id="（WEB）Faucet-2" transform="translate(-764.000000, -267.000000)" fill="#5C64FF" fill-rule="nonzero">
            <g id="Group-3" transform="translate(547.339801, 114.919710)">
                <g id="jiantou-blue" transform="translate(216.660199, 152.080290)">
                    <path d="M12.5991781,4.9981922 L7.95810812,0.357122181 C7.69588974,0.0949038004 7.27082251,0.0949038004 7.00860413,0.357122181 C6.74638575,0.619340562 6.74638575,1.04440779 7.00860413,1.30662617 L10.5033843,4.80165049 L0.671415779,4.80165049 C0.300550118,4.80165049 0,5.10220061 0,5.47306627 C0,5.84393193 0.300550118,6.14448205 0.671415779,6.14448205 L10.5033843,6.14448205 L7.00835998,9.63950637 C6.7461416,9.90172475 6.7461416,10.326792 7.00835998,10.5890104 C7.13946917,10.7201195 7.31135161,10.7855521 7.48323405,10.7855521 C7.65511649,10.7855521 7.82699893,10.7201195 7.95810812,10.5890104 L12.5991781,5.94794034 C12.8613965,5.68572196 12.8613965,5.26041058 12.5991781,4.9981922 Z" id="Path"></path>
                </g>
            </g>
        </g>
    </g>
</svg>