<?xml version="1.0" encoding="UTF-8"?>
<svg width="55px" height="50px" viewBox="0 0 55 50" version="1.1" xmlns="http://www.w3.org/2000/svg" xmlns:xlink="http://www.w3.org/1999/xlink">
    <title>Automate Workflow LOGO</title>
    <defs>
        <radialGradient cx="0%" cy="9.60170324%" fx="0%" fy="9.60170324%" r="188.258311%" gradientTransform="translate(0.000000,0.096017),scale(0.509259,1.000000),rotate(24.607799),translate(-0.000000,-0.096017)" id="radialGradient-1">
            <stop stop-color="#37F8DD" offset="0%"></stop>
            <stop stop-color="#5C64FF" offset="100%"></stop>
        </radialGradient>
        <radialGradient cx="0%" cy="9.60170324%" fx="0%" fy="9.60170324%" r="245.920672%" gradientTransform="translate(0.000000,0.096017),scale(0.509259,1.000000),rotate(28.068726),translate(-0.000000,-0.096017)" id="radialGradient-2">
            <stop stop-color="#CAEBFA" offset="0%"></stop>
            <stop stop-color="#5C64FF" offset="100%"></stop>
        </radialGradient>
        <linearGradient x1="90.2755853%" y1="38.7505724%" x2="15.5246844%" y2="61.3140589%" id="linearGradient-3">
            <stop stop-color="#40ECE1" offset="0%"></stop>
            <stop stop-color="#5C64FF" offset="100%"></stop>
        </linearGradient>
        <linearGradient x1="17.605661%" y1="0%" x2="77.4156449%" y2="79.1775733%" id="linearGradient-4">
            <stop stop-color="#5C64FF" offset="0%"></stop>
            <stop stop-color="#C4E4FA" offset="100%"></stop>
        </linearGradient>
        <linearGradient x1="27.2610966%" y1="17.375958%" x2="98.1983471%" y2="79.6542337%" id="linearGradient-5">
            <stop stop-color="#4FC8F8" offset="0%"></stop>
            <stop stop-color="#733FF1" offset="100%"></stop>
        </linearGradient>
        <linearGradient x1="17.605661%" y1="0%" x2="77.4156449%" y2="79.1775733%" id="linearGradient-6">
            <stop stop-color="#5C64FF" offset="0%"></stop>
            <stop stop-color="#C4E4FA" offset="100%"></stop>
        </linearGradient>
        <linearGradient x1="27.2610966%" y1="17.375958%" x2="98.1983471%" y2="79.6542337%" id="linearGradient-7">
            <stop stop-color="#4FC8F8" offset="0%"></stop>
            <stop stop-color="#733FF1" offset="100%"></stop>
        </linearGradient>
        <linearGradient x1="17.605661%" y1="0%" x2="77.4156449%" y2="79.1775733%" id="linearGradient-8">
            <stop stop-color="#5C64FF" offset="0%"></stop>
            <stop stop-color="#C4E4FA" offset="100%"></stop>
        </linearGradient>
        <linearGradient x1="27.2610966%" y1="17.375958%" x2="98.1983471%" y2="79.6542337%" id="linearGradient-9">
            <stop stop-color="#4FC8F8" offset="0%"></stop>
            <stop stop-color="#733FF1" offset="100%"></stop>
        </linearGradient>
    </defs>
    <g id="Automate-Workflow-LOGO" stroke="none" stroke-width="1" fill="none" fill-rule="evenodd">
        <g id="编组-5" transform="translate(1.043044, 0.757567)" fill-rule="nonzero">
            <g id="zidonghuabushu" transform="translate(7.709091, 4.962963)">
                <polygon id="路径" fill="#6EACFF" opacity="0.427825218" points="18.2724588 41.3726714 0.00396451302 32.0692715 0.00396451302 27.9344272 18.2724588 37.237827"></polygon>
                <polygon id="路径" fill="#3285FF" opacity="0.486055596" points="18.2724588 41.3726714 36.540953 32.0692715 36.540953 27.9344272 18.2724588 37.237827"></polygon>
                <polygon id="路径" fill="url(#radialGradient-1)" opacity="0.616074673" points="0.00396451302 27.9344272 18.2724588 18.6310273 36.540953 27.9344272 18.2724588 37.237827"></polygon>
                <polygon id="路径" fill="#75AEF2" opacity="0.743368459" points="18.2724588 32.0692715 0.00396451302 22.7658717 0.00396451302 18.6310273 18.2724588 27.9344272"></polygon>
                <polygon id="路径" fill="#559CF7" opacity="0.780568677" points="18.2724588 32.0692715 36.540953 22.7658717 36.540953 18.6310273 18.2724588 27.9344272"></polygon>
                <polygon id="路径" fill="url(#radialGradient-2)" opacity="0.810228924" points="0.00396451302 18.6310273 18.2724588 9.32762746 36.540953 18.6310273 18.2724588 27.9344272"></polygon>
                <polygon id="路径" fill="#6EACFF" opacity="0.864303234" points="18.2724588 22.7658717 0.00396451302 13.4624718 0.00396451302 9.32762746 18.2724588 18.6310273"></polygon>
                <polygon id="路径" fill="#458FFF" opacity="0.869776526" points="18.2724588 22.7658717 36.540953 13.4624718 36.540953 9.32762746 18.2724588 18.6310273"></polygon>
                <polygon id="路径" fill="url(#linearGradient-3)" opacity="0.768963481" points="0.00396451302 9.32762746 18.2724588 0.024227624 36.540953 9.32762746 18.2724588 18.6310273"></polygon>
            </g>
            <g id="编组-3">
                <path d="M0.963636364,4.90740741 C0.963636364,7.07563643 2.68937515,8.83333333 4.81818182,8.83333333 C6.94698849,8.83333333 8.67272727,7.07563643 8.67272727,4.90740741 C8.67272727,2.73917839 6.94698849,0.981481481 4.81818182,0.981481481 C2.68937515,0.981481481 0.963636364,2.73917839 0.963636364,4.90740741 Z" id="路径" fill="url(#linearGradient-4)" opacity="0.404932776"></path>
                <path d="M4.81818182,9.81481481 C2.16431697,9.81481481 0,7.6104179 0,4.90740741 C0,2.20439691 2.16431697,0 4.81818182,0 C7.47204667,0 9.63636364,2.20439691 9.63636364,4.90740741 C9.63636364,7.6104179 7.47848809,9.81481481 4.81818182,9.81481481 Z M4.81818182,1.34494454 C2.89219737,1.34494454 1.32693243,2.93919588 1.32693243,4.9008467 C1.32693243,6.86249752 2.89219737,8.45674886 4.81818182,8.45674886 C6.74416626,8.45674886 8.30943121,6.86249752 8.30943121,4.9008467 C8.30943121,2.93919588 6.74416626,1.34494454 4.81818182,1.34494454 Z" id="形状" fill="url(#linearGradient-5)" opacity="0.210814862"></path>
            </g>
            <g id="编组-2" transform="translate(46.254545, 9.870370)">
                <path d="M0.674545455,3.43518519 C0.674545455,4.9529455 1.8825626,6.18333333 3.37272727,6.18333333 C4.86289194,6.18333333 6.07090909,4.9529455 6.07090909,3.43518519 C6.07090909,1.91742487 4.86289194,0.687037037 3.37272727,0.687037037 C1.8825626,0.687037037 0.674545455,1.91742487 0.674545455,3.43518519 Z" id="路径备份" fill="url(#linearGradient-6)" opacity="0.404932776"></path>
                <path d="M3.37272727,6.87037037 C1.51502188,6.87037037 0,5.32729253 0,3.43518519 C0,1.54307784 1.51502188,0 3.37272727,0 C5.23043267,0 6.74545455,1.54307784 6.74545455,3.43518519 C6.74545455,5.32729253 5.23494166,6.87037037 3.37272727,6.87037037 Z M3.37272727,0.94146118 C2.02453816,0.94146118 0.928852698,2.05743712 0.928852698,3.43059269 C0.928852698,4.80374827 2.02453816,5.9197242 3.37272727,5.9197242 C4.72091638,5.9197242 5.81660185,4.80374827 5.81660185,3.43059269 C5.81660185,2.05743712 4.72091638,0.94146118 3.37272727,0.94146118 Z" id="形状备份" fill="url(#linearGradient-7)" opacity="0.210814862"></path>
            </g>
            <g id="编组-4" transform="translate(9.527273, 41.240741)">
                <path d="M0.770909091,3.92592593 C0.770909091,5.66050914 2.15150012,7.06666667 3.85454545,7.06666667 C5.55759079,7.06666667 6.93818182,5.66050914 6.93818182,3.92592593 C6.93818182,2.19134271 5.55759079,0.785185185 3.85454545,0.785185185 C2.15150012,0.785185185 0.770909091,2.19134271 0.770909091,3.92592593 Z" id="路径备份-2" fill="url(#linearGradient-8)" opacity="0.404932776"></path>
                <path d="M3.85454545,7.85185185 C1.73145357,7.85185185 0,6.08833432 0,3.92592593 C0,1.76351753 1.73145357,0 3.85454545,0 C5.97763734,0 7.70909091,1.76351753 7.70909091,3.92592593 C7.70909091,6.08833432 5.98279047,7.85185185 3.85454545,7.85185185 Z M3.85454545,1.07595563 C2.3137579,1.07595563 1.06154594,2.3513567 1.06154594,3.92067736 C1.06154594,5.48999802 2.3137579,6.76539909 3.85454545,6.76539909 C5.39533301,6.76539909 6.64754497,5.48999802 6.64754497,3.92067736 C6.64754497,2.3513567 5.39533301,1.07595563 3.85454545,1.07595563 Z" id="形状备份-2" fill="url(#linearGradient-9)" opacity="0.210814862"></path>
            </g>
        </g>
    </g>
</svg>