<?xml version="1.0" encoding="UTF-8"?>
<svg width="55px" height="50px" viewBox="0 0 55 50" version="1.1" xmlns="http://www.w3.org/2000/svg" xmlns:xlink="http://www.w3.org/1999/xlink">
    <title>Data monitoring LOGO</title>
    <defs>
        <radialGradient cx="0%" cy="9.60170324%" fx="0%" fy="9.60170324%" r="176.13356%" gradientTransform="translate(0.000000,0.096017),scale(1.000000,0.437500),rotate(70.389725),translate(-0.000000,-0.096017)" id="radialGradient-1">
            <stop stop-color="#37F8DD" offset="0%"></stop>
            <stop stop-color="#5C64FF" offset="100%"></stop>
        </radialGradient>
        <radialGradient cx="0%" cy="9.60170324%" fx="0%" fy="9.60170324%" r="212.781183%" gradientTransform="translate(0.000000,0.096017),scale(1.000000,0.636364),rotate(58.711487),translate(-0.000000,-0.096017)" id="radialGradient-2">
            <stop stop-color="#CAEBFA" offset="0%"></stop>
            <stop stop-color="#5C64FF" offset="100%"></stop>
        </radialGradient>
        <radialGradient cx="49.9991572%" cy="-0.00115321196%" fx="49.9991572%" fy="-0.00115321196%" r="454.079442%" gradientTransform="translate(0.499992,-0.000012),scale(0.117647,1.000000),rotate(53.489263),translate(-0.499992,0.000012)" id="radialGradient-3">
            <stop stop-color="#BCD1FC" offset="0%"></stop>
            <stop stop-color="#426CFF" offset="100%"></stop>
        </radialGradient>
        <linearGradient x1="54.0266618%" y1="-7.66687137%" x2="47.2235913%" y2="93.6255152%" id="linearGradient-4">
            <stop stop-color="#40ECE1" offset="0%"></stop>
            <stop stop-color="#5C64FF" offset="100%"></stop>
        </linearGradient>
        <linearGradient x1="33.7422781%" y1="3.08199399%" x2="50%" y2="100%" id="linearGradient-5">
            <stop stop-color="#AADBF7" offset="0%"></stop>
            <stop stop-color="#1C8EF1" offset="100%"></stop>
        </linearGradient>
        <radialGradient cx="0%" cy="9.60170324%" fx="0%" fy="9.60170324%" r="160.004445%" id="radialGradient-6">
            <stop stop-color="#E4F7FF" offset="0%"></stop>
            <stop stop-color="#5C64FF" offset="100%"></stop>
        </radialGradient>
        <radialGradient cx="0.667177182%" cy="-7.19876855%" fx="0.667177182%" fy="-7.19876855%" r="249.943699%" gradientTransform="translate(0.006672,-0.071988),scale(1.000000,0.590909),rotate(60.156181),translate(-0.006672,0.071988)" id="radialGradient-7">
            <stop stop-color="#3BBEFF" stop-opacity="0.32" offset="0%"></stop>
            <stop stop-color="#0038FF" offset="100%"></stop>
        </radialGradient>
        <radialGradient cx="107.076204%" cy="12.9966268%" fx="107.076204%" fy="12.9966268%" r="215.987328%" gradientTransform="translate(1.070762,0.129966),scale(1.000000,0.590909),rotate(123.862611),translate(-1.070762,-0.129966)" id="radialGradient-8">
            <stop stop-color="#36FFDB" offset="0%"></stop>
            <stop stop-color="#0038FF" stop-opacity="0.26" offset="100%"></stop>
        </radialGradient>
        <radialGradient cx="49.9991572%" cy="-0.00115321196%" fx="49.9991572%" fy="-0.00115321196%" r="121.605555%" gradientTransform="translate(0.499992,-0.000012),scale(0.588235,1.000000),rotate(86.777781),translate(-0.499992,0.000012)" id="radialGradient-9">
            <stop stop-color="#36FFDB" offset="0%"></stop>
            <stop stop-color="#0038FF" stop-opacity="0.86" offset="100%"></stop>
        </radialGradient>
        <radialGradient cx="0.667177182%" cy="-7.19876855%" fx="0.667177182%" fy="-7.19876855%" r="249.943699%" gradientTransform="translate(0.006672,-0.071988),scale(1.000000,0.590909),rotate(60.156181),translate(-0.006672,0.071988)" id="radialGradient-10">
            <stop stop-color="#3BBEFF" stop-opacity="0.32" offset="0%"></stop>
            <stop stop-color="#0038FF" offset="100%"></stop>
        </radialGradient>
        <radialGradient cx="107.076204%" cy="12.9966268%" fx="107.076204%" fy="12.9966268%" r="215.987328%" gradientTransform="translate(1.070762,0.129966),scale(1.000000,0.590909),rotate(123.862611),translate(-1.070762,-0.129966)" id="radialGradient-11">
            <stop stop-color="#36FFDB" offset="0%"></stop>
            <stop stop-color="#0038FF" stop-opacity="0.26" offset="100%"></stop>
        </radialGradient>
        <radialGradient cx="49.9991572%" cy="-0.00115321196%" fx="49.9991572%" fy="-0.00115321196%" r="121.605555%" gradientTransform="translate(0.499992,-0.000012),scale(0.588235,1.000000),rotate(86.777781),translate(-0.499992,0.000012)" id="radialGradient-12">
            <stop stop-color="#36FFDB" offset="0%"></stop>
            <stop stop-color="#0038FF" stop-opacity="0.86" offset="100%"></stop>
        </radialGradient>
    </defs>
    <g id="Data-monitoring-LOGO" stroke="none" stroke-width="1" fill="none" fill-rule="evenodd">
        <g id="编组-3" fill-rule="nonzero">
            <g id="编组-25" transform="translate(5.000000, 3.000000)">
                <g id="chanpinshuju">
                    <path d="M1.91375698,12.2432786 L8.95286313,12.2432786 C9.7271648,12.2432786 10.3606844,12.8767982 10.3606844,13.6510999 L10.3606844,33.3605971 C10.3606844,34.1348987 9.7271648,34.7684183 8.95286313,34.7684183 L1.91375698,34.7684183 C1.13945531,34.7684183 0.505935754,34.1348987 0.505935754,33.3605971 L0.505935754,13.6510999 C0.505935754,12.8767982 1.13945531,12.2432786 1.91375698,12.2432786 Z" id="路径" fill="url(#radialGradient-1)" opacity="0.616074673"></path>
                    <path d="M31.0087291,19.2823848 L38.0478352,19.2823848 C38.8221369,19.2823848 39.4556564,19.9159043 39.4556564,20.690206 L39.4556564,33.3605971 C39.4556564,34.1348987 38.8221369,34.7684183 38.0478352,34.7684183 L31.0087291,34.7684183 C30.2344274,34.7684183 29.6009078,34.1348987 29.6009078,33.3605971 L29.6009078,20.690206 C29.6009078,19.9159043 30.2344274,19.2823848 31.0087291,19.2823848 Z" id="路径" fill="url(#radialGradient-2)" opacity="0.810228924"></path>
                    <path d="M1.44448324,37.114787 L38.5171089,37.114787 C39.2914106,37.114787 39.9249302,37.7483066 39.9249302,38.5226082 L39.9249302,40.3997032 C39.9249302,41.1740049 39.2914106,41.8075244 38.5171089,41.8075244 L1.44448324,41.8075244 C0.670181564,41.8075244 0.0366620112,41.1740049 0.0366620112,40.3997032 L0.0366620112,38.5226082 C0.0366620112,37.7483066 0.670181564,37.114787 1.44448324,37.114787 Z" id="形状" fill="url(#radialGradient-3)"></path>
                    <path d="M23.5003492,0.0421613128 C24.2746508,0.0421613128 24.9081704,0.675680866 24.9081704,1.44998254 L24.9081704,33.3605971 C24.9081704,34.1348987 24.2746508,34.7684183 23.5003492,34.7684183 L16.461243,34.7684183 C15.6869413,34.7684183 15.0534218,34.1348987 15.0534218,33.3605971 L15.0534218,1.44998254 C15.0534218,0.675680866 15.6869413,0.0421613128 16.461243,0.0421613128 L23.5003492,0.0421613128 Z" id="路径" fill="url(#linearGradient-4)" opacity="0.768963481"></path>
                </g>
                <g id="fangdajing-3" transform="translate(20.413408, 10.558659)">
                    <path d="M10.6007265,0.613618675 C13.3567705,0.613618675 15.8534878,1.73247433 17.6612333,3.54021976 C19.4689787,5.34796521 20.5878344,7.84468254 20.5878344,10.6007265 C20.5878344,13.3567705 19.4689787,15.8534878 17.6612333,17.6612333 C15.8534878,19.4689787 13.3567705,20.5878344 10.6007265,20.5878344 C7.84468254,20.5878344 5.34796522,19.4689787 3.54021978,17.6612333 C1.73247433,15.8534879 0.613618675,13.3567705 0.613618675,10.6007265 C0.613618675,7.84468253 1.73247433,5.34796521 3.54021977,3.54021977 C5.34796521,1.73247433 7.84468253,0.613618675 10.6007265,0.613618675 Z" id="路径" stroke="url(#linearGradient-5)" stroke-width="1.17318436"></path>
                    <path d="M22.3175293,22.8890806 C22.167121,22.8890806 22.0317536,22.8289173 21.911427,22.7236316 L17.263812,18.0760166 C17.0381997,17.8504042 17.0381997,17.4894244 17.263812,17.263812 C17.4894244,17.0381997 17.8504042,17.0381997 18.0760166,17.263812 L22.7236316,21.911427 C22.9492439,22.1370394 22.9492439,22.4980192 22.7236316,22.7236316 C22.603305,22.8289173 22.4679375,22.8890806 22.3175293,22.8890806 Z" id="路径" fill="#2894F2"></path>
                    <path d="M10.6007265,1.17012919 C5.39660104,1.17012919 1.17012919,5.39660104 1.17012919,10.6007265 C1.17012919,15.804852 5.39660104,20.0313239 10.6007265,20.0313239 C15.804852,20.0313239 20.0313239,15.804852 20.0313239,10.6007265 C20.0313239,5.39660104 15.804852,1.17012919 10.6007265,1.17012919 Z" id="路径" fill="url(#radialGradient-6)" opacity="0.58082758"></path>
                    <path d="M17.7451184,11.1722779 C17.4292611,11.1722779 17.1735671,10.9165838 17.1735671,10.6007265 C17.1735671,6.97588767 14.2255654,4.02788596 10.6007265,4.02788596 C10.2848692,4.02788596 10.0291752,3.77219192 10.0291752,3.45633461 C10.0291752,3.14047727 10.2848692,2.88478326 10.6007265,2.88478326 C14.85728,2.88478326 18.3166698,6.34417302 18.3166698,10.6007265 C18.3166698,10.9165839 18.0609758,11.1722779 17.7451184,11.1722779 L17.7451184,11.1722779 Z" id="路径" fill="#F1F7FF"></path>
                </g>
            </g>
            <g id="编组-22" opacity="0.310524164" transform="translate(6.280488, 14.097561) scale(-1, 1) translate(-6.280488, -14.097561) translate(0.780488, 8.097561)">
                <polygon id="路径" fill="url(#radialGradient-7)" points="5.28649659 11.9962807 9.93427562e-13 9.014182 9.93427562e-13 3.04990188 5.28649659 6.0320006"></polygon>
                <polygon id="路径" fill="url(#radialGradient-8)" points="10.3696664 9.014182 5.0831698 11.9962807 5.0831698 6.0320006 10.3696664 3.04990188"></polygon>
                <polygon id="路径" fill="url(#radialGradient-9)" points="5.186535 6.09980376 1.27897692e-13 3.04994416 5.186535 -6.72351064e-13 10.3696664 3.04994416"></polygon>
            </g>
            <g id="编组-22备份-2" opacity="0.607512718" transform="translate(49.280488, 6.097561) scale(-1, 1) translate(-49.280488, -6.097561) translate(43.780488, 0.097561)">
                <polygon id="路径" fill="url(#radialGradient-7)" points="5.28649659 11.9962807 9.93427562e-13 9.014182 9.93427562e-13 3.04990188 5.28649659 6.0320006"></polygon>
                <polygon id="路径" fill="url(#radialGradient-8)" points="10.3696664 9.014182 5.0831698 11.9962807 5.0831698 6.0320006 10.3696664 3.04990188"></polygon>
                <polygon id="路径" fill="url(#radialGradient-9)" points="5.186535 6.09980376 1.27897692e-13 3.04994416 5.186535 -6.72351064e-13 10.3696664 3.04994416"></polygon>
            </g>
            <g id="编组-22备份" opacity="0.40143532" transform="translate(36.280488, 45.097561) scale(-1, 1) translate(-36.280488, -45.097561) translate(32.780488, 41.097561)">
                <polygon id="路径" fill="url(#radialGradient-10)" points="3.52433106 7.99752048 6.62285042e-13 6.00945467 6.62285042e-13 2.03326792 3.52433106 4.02133373"></polygon>
                <polygon id="路径" fill="url(#radialGradient-11)" points="6.91311092 6.00945467 3.38877986 7.99752048 3.38877986 4.02133373 6.91311092 2.03326792"></polygon>
                <polygon id="路径" fill="url(#radialGradient-12)" points="3.45769 4.06653584 8.52651283e-14 2.03329611 3.45769 -4.48234042e-13 6.91311092 2.03329611"></polygon>
            </g>
        </g>
    </g>
</svg>