<?xml version="1.0" encoding="UTF-8"?>
<svg width="55px" height="50px" viewBox="0 0 55 50" version="1.1" xmlns="http://www.w3.org/2000/svg" xmlns:xlink="http://www.w3.org/1999/xlink">
    <title>Decentralized Computing Power LOGO</title>
    <defs>
        <linearGradient x1="50%" y1="0%" x2="50%" y2="100%" id="linearGradient-1">
            <stop stop-color="#70E7FF" stop-opacity="0" offset="0%"></stop>
            <stop stop-color="#B0B4FF" offset="100%"></stop>
        </linearGradient>
        <linearGradient x1="16.3947615%" y1="0%" x2="78.440441%" y2="79.1775733%" id="linearGradient-2">
            <stop stop-color="#5C64FF" offset="0%"></stop>
            <stop stop-color="#C4E4FA" offset="100%"></stop>
        </linearGradient>
        <linearGradient x1="26.4111171%" y1="17.375958%" x2="100%" y2="79.6542337%" id="linearGradient-3">
            <stop stop-color="#CFCBF8" offset="0%"></stop>
            <stop stop-color="#733FF1" offset="100%"></stop>
        </linearGradient>
        <radialGradient cx="0%" cy="9.60170324%" fx="0%" fy="9.60170324%" r="160.519068%" gradientTransform="translate(0.000000,0.096017),scale(1.000000,0.581579),rotate(57.110518),translate(-0.000000,-0.096017)" id="radialGradient-4">
            <stop stop-color="#37F8DD" offset="0%"></stop>
            <stop stop-color="#5C64FF" offset="100%"></stop>
        </radialGradient>
        <linearGradient x1="63.6225777%" y1="6.62369451%" x2="38.3392715%" y2="93.6255152%" id="linearGradient-5">
            <stop stop-color="#40ECE1" offset="0%"></stop>
            <stop stop-color="#5C64FF" offset="100%"></stop>
        </linearGradient>
        <radialGradient cx="49.9991572%" cy="-0.00115321196%" fx="49.9991572%" fy="-0.00115321196%" r="116.929708%" gradientTransform="translate(0.499992,-0.000012),scale(1.000000,0.581579),rotate(93.694434),translate(-0.499992,0.000012)" id="radialGradient-6">
            <stop stop-color="#36FFDB" offset="0%"></stop>
            <stop stop-color="#426CFF" offset="100%"></stop>
        </radialGradient>
        <linearGradient x1="50%" y1="0%" x2="50%" y2="100%" id="linearGradient-7">
            <stop stop-color="#83EAFF" stop-opacity="0" offset="0%"></stop>
            <stop stop-color="#86B5FF" offset="100%"></stop>
        </linearGradient>
        <linearGradient x1="50%" y1="0%" x2="50%" y2="100%" id="linearGradient-8">
            <stop stop-color="#BFF4FF" stop-opacity="0" offset="0%"></stop>
            <stop stop-color="#54A9FF" offset="100%"></stop>
        </linearGradient>
    </defs>
    <g id="Decentralized-Computing-Power-LOGO" stroke="none" stroke-width="1" fill="none" fill-rule="evenodd">
        <g id="编组-8备份-2" transform="translate(2.000000, 5.000000)">
            <ellipse id="椭圆形备份-4" stroke="url(#linearGradient-1)" stroke-width="0.936305732" cx="24.5" cy="20.0955414" rx="24.5" ry="8.42675159"></ellipse>
            <g id="编组-2" transform="translate(3.745223, 22.280255)" fill-rule="nonzero">
                <path d="M0.656629994,3.61146497 C0.656629994,5.24337526 1.97955467,6.56629994 3.61146497,6.56629994 C5.24337526,6.56629994 6.56629994,5.24337526 6.56629994,3.61146497 C6.56629994,1.97955467 5.24337526,0.656629994 3.61146497,0.656629994 C1.97955467,0.656629994 0.656629994,1.97955467 0.656629994,3.61146497 Z" id="路径备份" fill="url(#linearGradient-2)" opacity="0.9"></path>
                <path d="M3.61146497,7.22292994 C1.62226234,7.22292994 0,5.6006676 0,3.61146497 C0,1.62226234 1.62226234,0 3.61146497,0 C5.6006676,0 7.22292994,1.62226234 7.22292994,3.61146497 C7.22292994,5.6006676 5.60549576,7.22292994 3.61146497,7.22292994 Z M3.61146497,0.989773153 C2.16784461,0.989773153 0.994601315,2.16301645 0.994601315,3.60663681 C0.994601315,5.05025716 2.16784461,6.22350046 3.61146497,6.22350046 C5.05508532,6.22350046 6.22832862,5.05025716 6.22832862,3.60663681 C6.22832862,2.16301645 5.05508532,0.989773153 3.61146497,0.989773153 Z" id="形状备份" fill="url(#linearGradient-3)" opacity="0.3"></path>
            </g>
            <g id="编组-2备份-3" opacity="0.515942951" transform="translate(41.821656, 12.917197)" fill-rule="nonzero">
                <path d="M0.383034163,2.1066879 C0.383034163,3.05863557 1.15474023,3.83034163 2.1066879,3.83034163 C3.05863557,3.83034163 3.83034163,3.05863557 3.83034163,2.1066879 C3.83034163,1.15474023 3.05863557,0.383034163 2.1066879,0.383034163 C1.15474023,0.383034163 0.383034163,1.15474023 0.383034163,2.1066879 Z" id="路径备份" fill="url(#linearGradient-2)" opacity="0.9"></path>
                <path d="M2.1066879,4.2133758 C0.946319698,4.2133758 0,3.2670561 0,2.1066879 C0,0.946319698 0.946319698,0 2.1066879,0 C3.2670561,0 4.2133758,0.946319698 4.2133758,2.1066879 C4.2133758,3.2670561 3.26987253,4.2133758 2.1066879,4.2133758 Z M2.1066879,0.577367673 C1.26457602,0.577367673 0.5801841,1.2617596 0.5801841,2.10387147 C0.5801841,2.94598334 1.26457602,3.63037527 2.1066879,3.63037527 C2.94879977,3.63037527 3.6331917,2.94598334 3.6331917,2.10387147 C3.6331917,1.2617596 2.94879977,0.577367673 2.1066879,0.577367673 Z" id="形状备份" fill="url(#linearGradient-3)" opacity="0.3"></path>
            </g>
            <g id="kuaisu备份" transform="translate(33.547022, 22.515005) rotate(-360.000000) translate(-33.547022, -22.515005) translate(18.547022, 0.015005)" fill-rule="nonzero">
                <path d="M27.7351813,0.158939245 L9.25263159,0.158939245 C8.57965795,0.148147669 7.99747971,0.625533798 7.87641786,1.28761993 L4.33954874,20.5683736 C4.26058374,20.9760375 4.36990744,21.3975612 4.63704997,21.7154608 C4.90419249,22.0333604 5.30059029,22.2136453 5.7157624,22.2060679 L7.6975101,22.2060679 L4.43588367,42.023545 C4.39597989,42.3165593 4.54775295,42.6023026 4.81287288,42.7333031 C5.07799282,42.8643035 5.39716516,42.8112626 5.60566528,42.6015547 L26.0424385,20.5821358 C26.2259218,20.3845839 26.2771261,20.0980747 26.1734276,19.8491983 C26.0697291,19.6003219 25.8302355,19.4349369 25.5607637,19.4261163 L21.5146955,19.4261163 L29.0012979,2.08582384 C29.1873304,1.6595777 29.1454986,1.16820879 28.8900902,0.77954389 C28.6346818,0.390878989 28.2002525,0.157502764 27.7351813,0.158939245 Z" id="路径" fill="url(#radialGradient-4)" opacity="0.269349564"></path>
                <path d="M25.6312072,0.886699703 L7.1486574,0.886699703 C6.47568379,0.875908157 5.89350559,1.35329428 5.77244374,2.01538038 L2.23557455,21.2961341 C2.15660956,21.703798 2.26593326,22.1253216 2.5330758,22.4432213 C2.80021835,22.7611209 3.19661616,22.9414058 3.61178828,22.9338284 L5.59353598,22.9338284 L2.33190955,42.7513055 C2.29200577,43.0443198 2.44377883,43.3300631 2.70889876,43.4610635 C2.9740187,43.592064 3.29319104,43.5390231 3.50169116,43.3293152 L23.9384644,21.3098962 C24.1219477,21.1123443 24.173152,20.8258352 24.0694535,20.5769587 C23.965755,20.3280823 23.7262614,20.1626973 23.4567896,20.1538767 L19.4107213,20.1538767 L26.8973238,2.8135843 C27.0833562,2.38733815 27.0415245,1.89596925 26.7861161,1.50730435 C26.5307077,1.11863945 26.0962784,0.885263221 25.6312072,0.886699703 Z" id="路径" fill="url(#linearGradient-5)" opacity="0.491006541"></path>
                <path d="M23.5272331,1.61446016 L5.04468329,1.61446016 C4.37170967,1.60366861 3.78953147,2.08105474 3.66846962,2.74314084 L0.131600434,22.0238946 C0.0526354396,22.4315584 0.161959139,22.8530821 0.429101665,23.1709817 C0.696244191,23.4888813 1.09264199,23.6691662 1.5078141,23.6615889 L3.4895618,23.6615889 L0.22793537,43.4790659 C0.188031548,43.7720802 0.339804616,44.0578236 0.604924584,44.1888241 C0.870044553,44.3198245 1.18921693,44.2667836 1.39771704,44.0570757 L21.8344903,22.0376567 C22.0179735,21.8401048 22.0691779,21.5535956 21.9654794,21.3047192 C21.8617808,21.0558428 21.6222873,20.8904578 21.3528154,20.8816372 L17.3067472,20.8816372 L24.7933496,3.54134476 C24.9793821,3.11509862 24.9375503,2.62372973 24.6821419,2.23506483 C24.4267336,1.84639993 23.9923043,1.6130237 23.5272331,1.61446016 L23.5272331,1.61446016 Z" id="路径" fill="url(#radialGradient-6)" opacity="0.771575218"></path>
            </g>
            <ellipse id="椭圆形备份-5" stroke="url(#linearGradient-7)" stroke-width="0.693559802" opacity="0.822924237" cx="24.656051" cy="29.4585987" rx="18.1019108" ry="6.24203822"></ellipse>
            <ellipse id="椭圆形备份-6" stroke="url(#linearGradient-8)" stroke-width="0.732301567" opacity="0.419263263" cx="24.8121019" cy="38.1974522" rx="11.0796178" ry="3.74522293"></ellipse>
            <g id="编组-7备份" opacity="0.767055778" transform="translate(32.146497, 31.331210)" fill-rule="nonzero">
                <path d="M0.450990967,3.2751577 C0.450990967,4.83490192 1.71541348,6.09932444 3.2751577,6.09932444 C4.83490192,6.09932444 6.09932444,4.83490192 6.09932444,3.2751577 C6.09932444,1.71541348 4.83490192,0.450990967 3.2751577,0.450990967 C1.71541348,0.450990967 0.450990967,1.71541348 0.450990967,3.2751577 Z" id="路径" fill="url(#linearGradient-2)" opacity="0.9"></path>
                <path d="M3.2751577,6.55031541 C1.46681528,6.55031541 -1.99585571e-14,5.07912157 -1.99585571e-14,3.2751577 C-1.99585571e-14,1.47119384 1.47119384,-5.54404364e-16 3.2751577,-5.54404364e-16 C5.07912157,-5.54404364e-16 6.55031541,1.47119384 6.55031541,3.2751577 C6.55031541,5.07912157 5.08350013,6.55031541 3.2751577,6.55031541 Z M3.2751577,0.901981935 C1.96597033,0.901981935 0.901981935,1.96597033 0.901981935,3.2751577 C0.901981935,4.58434508 1.96597033,5.64833347 3.2751577,5.64833347 C4.58434508,5.64833347 5.64833347,4.58434508 5.64833347,3.2751577 C5.64833347,1.96597033 4.58434508,0.901981935 3.2751577,0.901981935 Z" id="形状" fill="url(#linearGradient-3)" opacity="0.3"></path>
            </g>
            <g id="编组-7备份-9" transform="translate(16.541401, 39.445860)" fill-rule="nonzero">
                <path d="M0.257709124,1.87151869 C0.257709124,2.7628011 0.980236277,3.48532825 1.87151869,3.48532825 C2.7628011,3.48532825 3.48532825,2.7628011 3.48532825,1.87151869 C3.48532825,0.980236277 2.7628011,0.257709124 1.87151869,0.257709124 C0.980236277,0.257709124 0.257709124,0.980236277 0.257709124,1.87151869 Z" id="路径" fill="url(#linearGradient-2)" opacity="0.9"></path>
                <path d="M1.87151869,3.74303738 C0.838180161,3.74303738 -1.14048898e-14,2.90235519 -1.14048898e-14,1.87151869 C-1.14048898e-14,0.840682192 0.840682192,-3.16802494e-16 1.87151869,-3.16802494e-16 C2.90235519,-3.16802494e-16 3.74303738,0.840682192 3.74303738,1.87151869 C3.74303738,2.90235519 2.90485722,3.74303738 1.87151869,3.74303738 Z M1.87151869,0.515418248 C1.12341162,0.515418248 0.515418248,1.12341162 0.515418248,1.87151869 C0.515418248,2.61962576 1.12341162,3.22761913 1.87151869,3.22761913 C2.61962576,3.22761913 3.22761913,2.61962576 3.22761913,1.87151869 C3.22761913,1.12341162 2.61962576,0.515418248 1.87151869,0.515418248 Z" id="形状" fill="url(#linearGradient-3)" opacity="0.3"></path>
            </g>
        </g>
    </g>
</svg>