<?xml version="1.0" encoding="UTF-8"?>
<svg width="55px" height="50px" viewBox="0 0 55 50" version="1.1" xmlns="http://www.w3.org/2000/svg" xmlns:xlink="http://www.w3.org/1999/xlink">
    <title>MiddleWare LOGO</title>
    <defs>
        <radialGradient cx="0%" cy="9.60170324%" fx="0%" fy="9.60170324%" r="243.978177%" gradientTransform="translate(0.000000,0.096017),scale(1.000000,0.392602),rotate(70.691298),translate(-0.000000,-0.096017)" id="radialGradient-1">
            <stop stop-color="#74CBF1" offset="0%"></stop>
            <stop stop-color="#37FEDC" offset="100%"></stop>
        </radialGradient>
        <radialGradient cx="11.3579335%" cy="65.5711054%" fx="11.3579335%" fy="65.5711054%" r="109.502275%" gradientTransform="translate(0.113579,0.655711),scale(0.776977,1.000000),rotate(-25.835157),translate(-0.113579,-0.655711)" id="radialGradient-2">
            <stop stop-color="#5BAEF4" offset="0%"></stop>
            <stop stop-color="#9DB3FD" offset="100%"></stop>
        </radialGradient>
        <radialGradient cx="0%" cy="9.60170324%" fx="0%" fy="9.60170324%" r="183.221274%" gradientTransform="translate(0.000000,0.096017),scale(0.777903,1.000000),rotate(39.164465),translate(-0.000000,-0.096017)" id="radialGradient-3">
            <stop stop-color="#CAEBFA" offset="0%"></stop>
            <stop stop-color="#88C9FF" offset="0%"></stop>
            <stop stop-color="#5C64FF" offset="100%"></stop>
        </radialGradient>
        <radialGradient cx="0%" cy="9.60170324%" fx="0%" fy="9.60170324%" r="160.916429%" gradientTransform="translate(0.000000,0.096017),scale(1.000000,0.579545),rotate(57.201965),translate(-0.000000,-0.096017)" id="radialGradient-4">
            <stop stop-color="#CAEBFA" offset="0%"></stop>
            <stop stop-color="#5C64FF" offset="100%"></stop>
        </radialGradient>
        <radialGradient cx="107.076204%" cy="12.9966268%" fx="107.076204%" fy="12.9966268%" r="218.916265%" gradientTransform="translate(1.070762,0.129966),scale(1.000000,0.579545),rotate(123.349753),translate(-1.070762,-0.129966)" id="radialGradient-5">
            <stop stop-color="#8FF5FF" offset="0%"></stop>
            <stop stop-color="#7E95FE" offset="73.9219998%"></stop>
            <stop stop-color="#7D8DFE" offset="100%"></stop>
        </radialGradient>
        <radialGradient cx="49.9991572%" cy="-0.00115321196%" fx="49.9991572%" fy="-0.00115321196%" r="121.605555%" gradientTransform="translate(0.499992,-0.000012),scale(0.588235,1.000000),rotate(86.777781),translate(-0.499992,0.000012)" id="radialGradient-6">
            <stop stop-color="#36FFDB" offset="0%"></stop>
            <stop stop-color="#426CFF" offset="100%"></stop>
        </radialGradient>
        <radialGradient cx="0.667177182%" cy="-7.19876855%" fx="0.667177182%" fy="-7.19876855%" r="249.943699%" gradientTransform="translate(0.006672,-0.071988),scale(1.000000,0.590909),rotate(60.156181),translate(-0.006672,0.071988)" id="radialGradient-7">
            <stop stop-color="#3BBEFF" stop-opacity="0.32" offset="0%"></stop>
            <stop stop-color="#0038FF" offset="100%"></stop>
        </radialGradient>
        <radialGradient cx="107.076204%" cy="12.9966268%" fx="107.076204%" fy="12.9966268%" r="215.987328%" gradientTransform="translate(1.070762,0.129966),scale(1.000000,0.590909),rotate(123.862611),translate(-1.070762,-0.129966)" id="radialGradient-8">
            <stop stop-color="#36FFDB" offset="0%"></stop>
            <stop stop-color="#0038FF" stop-opacity="0.26" offset="100%"></stop>
        </radialGradient>
        <radialGradient cx="49.9991572%" cy="-0.00115321196%" fx="49.9991572%" fy="-0.00115321196%" r="121.605555%" gradientTransform="translate(0.499992,-0.000012),scale(0.588235,1.000000),rotate(86.777781),translate(-0.499992,0.000012)" id="radialGradient-9">
            <stop stop-color="#36FFDB" offset="0%"></stop>
            <stop stop-color="#0038FF" stop-opacity="0.86" offset="100%"></stop>
        </radialGradient>
        <radialGradient cx="0.667177182%" cy="-7.19876855%" fx="0.667177182%" fy="-7.19876855%" r="249.943699%" gradientTransform="translate(0.006672,-0.071988),scale(1.000000,0.590909),rotate(60.156181),translate(-0.006672,0.071988)" id="radialGradient-10">
            <stop stop-color="#3BBEFF" stop-opacity="0.32" offset="0%"></stop>
            <stop stop-color="#0038FF" offset="100%"></stop>
        </radialGradient>
        <radialGradient cx="107.076204%" cy="12.9966268%" fx="107.076204%" fy="12.9966268%" r="215.987328%" gradientTransform="translate(1.070762,0.129966),scale(1.000000,0.590909),rotate(123.862611),translate(-1.070762,-0.129966)" id="radialGradient-11">
            <stop stop-color="#36FFDB" offset="0%"></stop>
            <stop stop-color="#0038FF" stop-opacity="0.26" offset="100%"></stop>
        </radialGradient>
        <radialGradient cx="49.9991572%" cy="-0.00115321196%" fx="49.9991572%" fy="-0.00115321196%" r="121.605555%" gradientTransform="translate(0.499992,-0.000012),scale(0.588235,1.000000),rotate(86.777781),translate(-0.499992,0.000012)" id="radialGradient-12">
            <stop stop-color="#36FFDB" offset="0%"></stop>
            <stop stop-color="#0038FF" stop-opacity="0.86" offset="100%"></stop>
        </radialGradient>
    </defs>
    <g id="MiddleWare-LOGO" stroke="none" stroke-width="1" fill="none" fill-rule="evenodd">
        <g id="编组-2" transform="translate(1.117689, 0.233609)" fill-rule="nonzero">
            <path d="M22.7133691,1.36267925 C22.7133691,0.61009434 23.3234634,0 24.0760106,0 L28.1860106,0 C28.9386521,0 29.5487465,0.61009434 29.5487465,1.36267925 L29.5487465,5.47264151 C29.5487465,6.22528302 28.9386521,6.83537736 28.1860106,6.83537736 L26.9854446,6.83537736 L26.9854446,17.0630189 C27.2787465,17.1390566 27.5642182,17.2549057 27.8336521,17.4104717 L24.426954,17.4104717 C24.6968597,17.2546226 24.9828031,17.1386792 25.276671,17.0626415 L25.276671,6.83537736 L24.0760106,6.83537736 C23.3234634,6.83537736 22.7133691,6.22528302 22.7133691,5.47264151 L22.7133691,1.36267925 Z" id="路径-2" fill="url(#radialGradient-1)"></path>
            <path d="M17.4743125,35.3533019 C17.2042182,35.1973585 16.9607276,35.0075472 16.7478974,34.7909434 L7.58027476,40.8812264 L8.1573974,41.8808491 C8.53369929,42.5326415 8.31038797,43.3660377 7.65862382,43.7423585 L4.09925589,45.7973585 C3.44749174,46.1736792 2.61408608,45.950283 2.23779363,45.2985849 L0.182792687,41.7391509 C-0.193502596,41.0874528 0.0298083476,40.2540566 0.681570046,39.8777358 L4.24093514,37.8227358 C4.89269929,37.4464151 5.72610495,37.669717 6.1023974,38.3215094 L6.72585023,39.4013208 L15.8940295,33.3106604 C15.8133691,33.0188679 15.7710106,32.7139623 15.7710106,32.4030189 L17.4743125,35.3533019 Z" id="路径-2" fill="url(#radialGradient-2)"></path>
            <path d="M36.4895955,32.4030189 C36.4895955,32.7141509 36.4471427,33.0192453 36.366388,33.3112264 L45.5195012,39.3932075 L46.1379917,38.3220755 C46.5143125,37.670283 47.3477087,37.4469811 47.9995012,37.8233019 L51.5588408,39.8783019 C52.2106333,40.2545283 52.4339351,41.0879245 52.0576144,41.739717 L50.0026144,45.2990566 C49.6262936,45.9508491 48.7928974,46.1741509 48.141105,45.7978302 L44.5817653,43.7428302 C43.9299729,43.3666038 43.706671,42.5332075 44.0829917,41.8814151 L44.6651616,40.8731132 L35.5123314,34.7913208 C35.2995955,35.0077358 35.0561993,35.1974528 34.7862936,35.3533019 L36.4895955,32.4030189 Z" id="路径-2" fill="url(#radialGradient-3)"></path>
            <polygon id="路径" fill="url(#radialGradient-4)" points="26.4095403 43.1293672 13.0694892 35.456729 13.0694892 20.1112398 26.4095403 27.9583287"></polygon>
            <polygon id="路径" fill="url(#radialGradient-5)" points="39.7495914 35.456729 26.4095403 43.1293672 26.4139189 27.9583287 39.7495914 20.1112398"></polygon>
            <polygon id="路径" fill="url(#radialGradient-6)" points="26.4139189 27.9583287 13.0694892 20.1113486 26.4139189 12.2641509 39.7495914 20.1113486"></polygon>
            <g id="编组-22" opacity="0.338685501" transform="translate(38.472158, 21.790152)">
                <polygon id="路径" fill="url(#radialGradient-7)" points="4.98726093 11.317246 -5.69223045e-13 8.50394528 -5.69223045e-13 2.87726592 4.98726093 5.6905666"></polygon>
                <polygon id="路径" fill="url(#radialGradient-8)" points="9.78270414 8.50394528 4.7954432 11.317246 4.7954432 5.6905666 9.78270414 2.87726592"></polygon>
                <polygon id="路径" fill="url(#radialGradient-9)" points="4.89295755 5.75453185 -6.73102725e-13 2.87730581 4.89295755 -5.08587394e-13 9.78270414 2.87730581"></polygon>
            </g>
            <g id="编组-22备份" opacity="0.440316134" transform="translate(5.660377, 12.264151)">
                <polygon id="路径" fill="url(#radialGradient-10)" points="5.48598703 12.4489706 8.72087935e-15 9.35433981 8.72087935e-15 3.16499252 5.48598703 6.25962326"></polygon>
                <polygon id="路径" fill="url(#radialGradient-11)" points="10.7609746 9.35433981 5.27498753 12.4489706 5.27498753 6.25962326 10.7609746 3.16499252"></polygon>
                <polygon id="路径" fill="url(#radialGradient-12)" points="5.3822533 6.32998503 1.06925564e-13 3.16503639 5.3822533 4.01918787e-14 10.7609746 3.16503639"></polygon>
            </g>
            <g id="编组-22备份-2" opacity="0.440316134" transform="translate(17.303267, 36.493327)">
                <polygon id="路径" fill="url(#radialGradient-10)" points="5.48598703 12.4489706 8.72087935e-15 9.35433981 8.72087935e-15 3.16499252 5.48598703 6.25962326"></polygon>
                <polygon id="路径" fill="url(#radialGradient-11)" points="10.7609746 9.35433981 5.27498753 12.4489706 5.27498753 6.25962326 10.7609746 3.16499252"></polygon>
                <polygon id="路径" fill="url(#radialGradient-12)" points="5.3822533 6.32998503 1.06925564e-13 3.16503639 5.3822533 4.01918787e-14 10.7609746 3.16503639"></polygon>
            </g>
        </g>
    </g>
</svg>