<?xml version="1.0" encoding="UTF-8"?>
<svg width="8px" height="12px" viewBox="0 0 8 12" version="1.1" xmlns="http://www.w3.org/2000/svg" xmlns:xlink="http://www.w3.org/1999/xlink">
    <title>Combined Shape备份@1x</title>
    <g id="What-Hamster-Provides" stroke="none" stroke-width="1" fill="none" fill-rule="evenodd">
        <g id="3（Web）-“What-Hamster-Provides”新增内容" transform="translate(-221.000000, -744.000000)" fill="#3CDED4">
            <g id="编组-18备份" transform="translate(134.000000, 740.000000)">
                <path d="M90.6547372,13.8810318 C90.6397365,13.8689324 90.6254078,13.8560226 90.6118151,13.8423603 C90.5564858,13.7867473 90.5129985,13.7234933 90.4815237,13.6558689 L85.1439803,7.0358459 C84.9330048,6.77428191 84.952719,6.39584432 85.1897306,6.15761771 C85.2033232,6.14395538 85.2176519,6.13104563 85.2326527,6.11894615 C85.4601821,5.93542263 85.7934064,5.9710965 85.9769299,6.19862597 L85.9769299,6.19862597 L91,12.427 L96.0230701,6.19862597 C96.2065936,5.9710965 96.5398179,5.93542263 96.7673473,6.11894615 C96.7823481,6.13104563 96.7966768,6.14395538 96.8102694,6.15761771 C97.047281,6.39584432 97.0669952,6.77428191 96.8560197,7.0358459 L91.5184763,13.6558689 C91.4870015,13.7234933 91.4435142,13.7867473 91.3881849,13.8423603 C91.3745922,13.8560226 91.3602635,13.8689324 91.3452628,13.8810318 C91.2441386,13.9625979 91.1221364,14.0008656 91.0016778,13.9982355 C90.8778636,14.0008656 90.7558614,13.9625979 90.6547372,13.8810318 Z" id="Combined-Shape备份" transform="translate(91.000000, 10.000000) rotate(-90.000000) translate(-91.000000, -10.000000) "></path>
            </g>
        </g>
    </g>
</svg>