<?xml version="1.0" encoding="UTF-8"?>
<svg width="55px" height="50px" viewBox="0 0 55 50" version="1.1" xmlns="http://www.w3.org/2000/svg" xmlns:xlink="http://www.w3.org/1999/xlink">
    <title>Service Operation LOGO</title>
    <defs>
        <radialGradient cx="0%" cy="9.60170324%" fx="0%" fy="9.60170324%" r="139.345317%" gradientTransform="translate(0.000000,0.096017),scale(0.496985,1.000000),rotate(31.394499),translate(-0.000000,-0.096017)" id="radialGradient-1">
            <stop stop-color="#37F8DD" offset="0%"></stop>
            <stop stop-color="#5C64FF" offset="100%"></stop>
        </radialGradient>
        <linearGradient x1="89.6983733%" y1="6.62369451%" x2="16.0187695%" y2="93.6255152%" id="linearGradient-2">
            <stop stop-color="#40ECE1" offset="0%"></stop>
            <stop stop-color="#5C64FF" offset="100%"></stop>
        </linearGradient>
        <linearGradient x1="56.913478%" y1="-11.8716574%" x2="73.706911%" y2="100%" id="linearGradient-3">
            <stop stop-color="#3F90F6" offset="0%"></stop>
            <stop stop-color="#34D2FF" offset="50.5208%"></stop>
            <stop stop-color="#4F56E4" offset="100%"></stop>
        </linearGradient>
        <linearGradient x1="56.9353414%" y1="-11.8716574%" x2="73.7818826%" y2="100%" id="linearGradient-4">
            <stop stop-color="#3F90F6" offset="0%"></stop>
            <stop stop-color="#99E9FF" offset="50.5208%"></stop>
            <stop stop-color="#5C64FF" offset="100%"></stop>
        </linearGradient>
        <radialGradient cx="0%" cy="9.60170324%" fx="0%" fy="9.60170324%" r="160.60279%" gradientTransform="translate(0.000000,0.096017),scale(1.000000,0.992912),rotate(46.521748),translate(-0.000000,-0.096017)" id="radialGradient-5">
            <stop stop-color="#CAEBFA" offset="0%"></stop>
            <stop stop-color="#5C64FF" offset="100%"></stop>
        </radialGradient>
        <linearGradient x1="56.9748308%" y1="-11.8716574%" x2="73.9172952%" y2="100%" id="linearGradient-6">
            <stop stop-color="#3F90F6" offset="0%"></stop>
            <stop stop-color="#D7E9FF" offset="50.5208%"></stop>
            <stop stop-color="#5C64FF" offset="100%"></stop>
        </linearGradient>
        <linearGradient x1="16.3947615%" y1="0%" x2="78.440441%" y2="79.1775733%" id="linearGradient-7">
            <stop stop-color="#5C64FF" offset="0%"></stop>
            <stop stop-color="#C4E4FA" offset="100%"></stop>
        </linearGradient>
        <linearGradient x1="26.4111171%" y1="17.375958%" x2="100%" y2="79.6542337%" id="linearGradient-8">
            <stop stop-color="#4FC8F8" offset="0%"></stop>
            <stop stop-color="#733FF1" offset="100%"></stop>
        </linearGradient>
    </defs>
    <g id="Service-Operation-LOGO" stroke="none" stroke-width="1" fill="none" fill-rule="evenodd">
        <g id="编组-5" transform="translate(2.000000, 1.000000)">
            <g id="编组-24" transform="translate(1.000000, 6.000000)">
                <path d="M9.51799873,15.3000173 C14.0237736,15.3000173 17.7946744,18.4637127 18.7630891,22.7048084 L38.4941483,22.7048084 L38.4941483,34.4176434 L9.69393259,34.4176434 L9.51799873,34.4207573 C4.26645112,34.4207573 0.0206846628,30.1422952 0.0206846628,24.8533811 C0.0206846628,19.5769225 4.26645112,15.3000173 9.51799873,15.3000173 Z" id="路径" fill="url(#radialGradient-1)" fill-rule="nonzero" opacity="0.616074673"></path>
                <path d="M43.5604204,17.2041509 C43.5604204,26.7170343 35.9111902,34.4223142 26.4808245,34.4223142 C17.0348893,34.4223142 9.3856591,26.7154774 9.3856591,17.202594 C9.3856591,7.68971053 17.0364462,-7.43179729e-14 26.4808245,-7.43179729e-14 C35.9111902,-7.43179729e-14 43.5604204,7.69126746 43.5604204,17.2041509" id="路径" fill="url(#linearGradient-2)" fill-rule="nonzero" opacity="0.768963481"></path>
                <path d="M39.3661117,28.5459539 C36.4428917,30.820715 32.7621578,32.176587 28.7629705,32.176587 C19.2513644,32.176587 11.5407355,24.5068406 11.5407355,15.045856 C11.5407355,10.6979789 13.1690994,6.7283779 15.8523887,3.70764899 C11.8230924,6.84315395 9.23329485,11.7246674 9.23329485,17.2077979 C9.23329485,26.6688676 16.9440093,34.3385289 26.4555299,34.3385289 C31.5960347,34.3385289 36.2104882,32.0983963 39.3661117,28.5459539 Z" id="路径" fill="url(#linearGradient-3)"></path>
                <path d="M16.934145,31.1776641 C15.2913437,32.4540256 13.2228321,33.2148012 10.9753549,33.2148012 C5.62998947,33.2148012 1.29674348,28.9113299 1.29674348,23.6028002 C1.29674348,21.1632197 2.21185712,18.9358886 3.71982134,17.2409668 C1.45542342,19.0002891 0,21.7392914 0,24.8158593 C0,30.1244367 4.33329407,34.4278602 9.67861143,34.4278602 C12.5674902,34.4278602 15.1607368,33.1709287 16.934145,31.1776641 Z" id="路径备份-9" fill="url(#linearGradient-4)"></path>
                <path d="M49.8411032,22.6658849 C49.8411032,29.1567542 44.6144666,34.4192004 38.1718624,34.4192004 C31.7261443,34.4192004 26.5026216,29.1567542 26.5026216,22.6658849 C26.5026216,16.1765726 31.7277013,10.9141265 38.1718624,10.9141265 C44.6144666,10.9141265 49.8395463,16.1765727 49.8395463,22.6658849" id="路径" fill="url(#radialGradient-5)" fill-rule="nonzero" opacity="0.810228924"></path>
                <path d="M46.837058,30.382624 C44.831874,31.9361194 42.3070731,32.8620808 39.5638289,32.8620808 C33.0393388,32.8620808 27.7502297,27.6242052 27.7502297,21.163045 C27.7502297,18.1937631 28.8672066,15.482816 30.70781,13.4198792 C27.9439126,15.5611997 26.1674398,18.8949162 26.1674398,22.6394931 C26.1674398,29.1007114 31.4566076,34.3385289 37.9810391,34.3385289 C41.5071705,34.3385289 44.6724568,32.8086823 46.837058,30.382624 Z" id="路径备份-10" fill="url(#linearGradient-6)"></path>
            </g>
            <g id="编组-3" transform="translate(47.000000, 5.000000) scale(-1, 1) translate(-47.000000, -5.000000) translate(42.000000, 0.000000)" fill-rule="nonzero">
                <path d="M1,5 C1,7.209139 2.790861,9 5,9 C7.209139,9 9,7.209139 9,5 C9,2.790861 7.209139,1 5,1 C2.790861,1 1,2.790861 1,5 Z" id="路径" fill="url(#linearGradient-7)" opacity="0.404932776"></path>
                <path d="M5,10 C2.2459893,10 0,7.7540107 0,5 C0,2.2459893 2.2459893,0 5,0 C7.7540107,0 10,2.2459893 10,5 C10,7.7540107 7.76069519,10 5,10 Z M5,1.37032086 C3.0013369,1.37032086 1.37700535,2.99465241 1.37700535,4.99331551 C1.37700535,6.99197861 3.0013369,8.61631016 5,8.61631016 C6.9986631,8.61631016 8.62299465,6.99197861 8.62299465,4.99331551 C8.62299465,2.99465241 6.9986631,1.37032086 5,1.37032086 Z" id="形状" fill="url(#linearGradient-8)" opacity="0.210814862"></path>
            </g>
            <g id="编组-2" transform="translate(3.000000, 12.000000) scale(-1, 1) translate(-3.000000, -12.000000) translate(0.000000, 9.000000)" fill-rule="nonzero">
                <path d="M0.6,3 C0.6,4.3254834 1.6745166,5.4 3,5.4 C4.3254834,5.4 5.4,4.3254834 5.4,3 C5.4,1.6745166 4.3254834,0.6 3,0.6 C1.6745166,0.6 0.6,1.6745166 0.6,3 Z" id="路径备份" fill="url(#linearGradient-7)" opacity="0.404932776"></path>
                <path d="M3,6 C1.34759358,6 0,4.65240642 0,3 C0,1.34759358 1.34759358,0 3,0 C4.65240642,0 6,1.34759358 6,3 C6,4.65240642 4.65641711,6 3,6 Z M3,0.822192513 C1.80080214,0.822192513 0.826203209,1.79679144 0.826203209,2.9959893 C0.826203209,4.19518717 1.80080214,5.1697861 3,5.1697861 C4.19919786,5.1697861 5.17379679,4.19518717 5.17379679,2.9959893 C5.17379679,1.79679144 4.19919786,0.822192513 3,0.822192513 Z" id="形状备份" fill="url(#linearGradient-8)" opacity="0.210814862"></path>
            </g>
            <g id="编组-4" transform="translate(35.500000, 45.500000) scale(-1, 1) translate(-35.500000, -45.500000) translate(32.000000, 42.000000)" fill-rule="nonzero">
                <path d="M0.7,3.5 C0.7,5.0463973 1.9536027,6.3 3.5,6.3 C5.0463973,6.3 6.3,5.0463973 6.3,3.5 C6.3,1.9536027 5.0463973,0.7 3.5,0.7 C1.9536027,0.7 0.7,1.9536027 0.7,3.5 Z" id="路径备份-2" fill="url(#linearGradient-7)" opacity="0.404932776"></path>
                <path d="M3.5,7 C1.57219251,7 0,5.42780749 0,3.5 C0,1.57219251 1.57219251,0 3.5,0 C5.42780749,0 7,1.57219251 7,3.5 C7,5.42780749 5.43248663,7 3.5,7 Z M3.5,0.959224599 C2.10093583,0.959224599 0.963903743,2.09625668 0.963903743,3.49532086 C0.963903743,4.89438503 2.10093583,6.03141711 3.5,6.03141711 C4.89906417,6.03141711 6.03609626,4.89438503 6.03609626,3.49532086 C6.03609626,2.09625668 4.89906417,0.959224599 3.5,0.959224599 Z" id="形状备份-2" fill="url(#linearGradient-8)" opacity="0.210814862"></path>
            </g>
        </g>
    </g>
</svg>