<?xml version="1.0" encoding="UTF-8"?>
<svg width="55px" height="49px" viewBox="0 0 55 49" version="1.1" xmlns="http://www.w3.org/2000/svg" xmlns:xlink="http://www.w3.org/1999/xlink">
    <title>solutions下拉框iCON1</title>
    <defs>
        <radialGradient cx="0%" cy="9.60170324%" fx="0%" fy="9.60170324%" r="191.14464%" gradientTransform="translate(0.000000,0.096017),scale(0.500000,1.000000),rotate(24.212168),translate(-0.000000,-0.096017)" id="radialGradient-1">
            <stop stop-color="#37F8DD" offset="0%"></stop>
            <stop stop-color="#5C64FF" offset="100%"></stop>
        </radialGradient>
        <radialGradient cx="0%" cy="9.60170324%" fx="0%" fy="9.60170324%" r="249.473654%" gradientTransform="translate(0.000000,0.096017),scale(0.500000,1.000000),rotate(27.634467),translate(-0.000000,-0.096017)" id="radialGradient-2">
            <stop stop-color="#CAEBFA" offset="0%"></stop>
            <stop stop-color="#5C64FF" offset="100%"></stop>
        </radialGradient>
        <linearGradient x1="90.2755853%" y1="39.1559237%" x2="15.5246844%" y2="60.9063788%" id="linearGradient-3">
            <stop stop-color="#40ECE1" offset="0%"></stop>
            <stop stop-color="#5C64FF" offset="100%"></stop>
        </linearGradient>
        <linearGradient x1="16.3947615%" y1="0%" x2="78.440441%" y2="79.1775733%" id="linearGradient-4">
            <stop stop-color="#5C64FF" offset="0%"></stop>
            <stop stop-color="#C4E4FA" offset="100%"></stop>
        </linearGradient>
        <linearGradient x1="26.4111171%" y1="17.375958%" x2="100%" y2="79.6542337%" id="linearGradient-5">
            <stop stop-color="#4FC8F8" offset="0%"></stop>
            <stop stop-color="#733FF1" offset="100%"></stop>
        </linearGradient>
    </defs>
    <g id="页面-1" stroke="none" stroke-width="1" fill="none" fill-rule="evenodd">
        <g id="（Web）主页-1.2" transform="translate(-828.000000, -115.000000)" fill-rule="nonzero">
            <g id="solutions下拉框iCON1" transform="translate(828.000000, 115.000000)">
                <g id="下拉框iCON1.4" transform="translate(8.000000, 2.000000)">
                    <polygon id="路径" fill="#6EACFF" opacity="0.427825218" points="18.9619855 42.1532878 0.00411411728 32.6743521 0.00411411728 28.4614918 18.9619855 37.9404275"></polygon>
                    <polygon id="路径" fill="#3285FF" opacity="0.486055596" points="18.9619855 42.1532878 37.9198569 32.6743521 37.9198569 28.4614918 18.9619855 37.9404275"></polygon>
                    <polygon id="路径" fill="url(#radialGradient-1)" opacity="0.616074673" points="0.00411411728 28.4614918 18.9619855 18.9825561 37.9198569 28.4614918 18.9619855 37.9404275"></polygon>
                    <polygon id="路径" fill="#75AEF2" opacity="0.743368459" points="18.9619855 32.6743521 0.00411411728 23.1954165 0.00411411728 18.9825561 18.9619855 28.4614918"></polygon>
                    <polygon id="路径" fill="#559CF7" opacity="0.780568677" points="18.9619855 32.6743521 37.9198569 23.1954165 37.9198569 18.9825561 18.9619855 28.4614918"></polygon>
                    <polygon id="路径" fill="url(#radialGradient-2)" opacity="0.810228924" points="0.00411411728 18.9825561 18.9619855 9.50362043 37.9198569 18.9825561 18.9619855 28.4614918"></polygon>
                    <polygon id="路径" fill="#6EACFF" opacity="0.864303234" points="18.9619855 23.1954165 0.00411411728 13.7164807 0.00411411728 9.50362043 18.9619855 18.9825561"></polygon>
                    <polygon id="路径" fill="#458FFF" opacity="0.869776526" points="18.9619855 23.1954165 37.9198569 13.7164807 37.9198569 9.50362043 18.9619855 18.9825561"></polygon>
                    <polygon id="路径" fill="url(#linearGradient-3)" opacity="0.768963481" points="0.00411411728 9.50362043 18.9619855 0.024684749 37.9198569 9.50362043 18.9619855 18.9825561"></polygon>
                </g>
                <g id="下拉框iCON1.3">
                    <path d="M1,5 C1,7.209139 2.790861,9 5,9 C7.209139,9 9,7.209139 9,5 C9,2.790861 7.209139,1 5,1 C2.790861,1 1,2.790861 1,5 Z" id="路径" fill="url(#linearGradient-4)" opacity="0.404932776"></path>
                    <path d="M5,10 C2.2459893,10 0,7.7540107 0,5 C0,2.2459893 2.2459893,0 5,0 C7.7540107,0 10,2.2459893 10,5 C10,7.7540107 7.76069519,10 5,10 Z M5,1.37032086 C3.0013369,1.37032086 1.37700535,2.99465241 1.37700535,4.99331551 C1.37700535,6.99197861 3.0013369,8.61631016 5,8.61631016 C6.9986631,8.61631016 8.62299465,6.99197861 8.62299465,4.99331551 C8.62299465,2.99465241 6.9986631,1.37032086 5,1.37032086 Z" id="形状" fill="url(#linearGradient-5)" opacity="0.210814862"></path>
                </g>
                <g id="下拉框iCON1.2" transform="translate(48.000000, 7.000000)">
                    <path d="M0.7,3.5 C0.7,5.0463973 1.9536027,6.3 3.5,6.3 C5.0463973,6.3 6.3,5.0463973 6.3,3.5 C6.3,1.9536027 5.0463973,0.7 3.5,0.7 C1.9536027,0.7 0.7,1.9536027 0.7,3.5 Z" id="路径备份" fill="url(#linearGradient-4)" opacity="0.404932776"></path>
                    <path d="M3.5,7 C1.57219251,7 0,5.42780749 0,3.5 C0,1.57219251 1.57219251,0 3.5,0 C5.42780749,0 7,1.57219251 7,3.5 C7,5.42780749 5.43248663,7 3.5,7 Z M3.5,0.959224599 C2.10093583,0.959224599 0.963903743,2.09625668 0.963903743,3.49532086 C0.963903743,4.89438503 2.10093583,6.03141711 3.5,6.03141711 C4.89906417,6.03141711 6.03609626,4.89438503 6.03609626,3.49532086 C6.03609626,2.09625668 4.89906417,0.959224599 3.5,0.959224599 Z" id="形状备份" fill="url(#linearGradient-5)" opacity="0.210814862"></path>
                </g>
                <g id="下拉框iCON1.1" transform="translate(13.000000, 41.000000)">
                    <path d="M0.8,4 C0.8,5.7673112 2.2326888,7.2 4,7.2 C5.7673112,7.2 7.2,5.7673112 7.2,4 C7.2,2.2326888 5.7673112,0.8 4,0.8 C2.2326888,0.8 0.8,2.2326888 0.8,4 Z" id="路径备份-2" fill="url(#linearGradient-4)" opacity="0.404932776"></path>
                    <path d="M4,8 C1.79679144,8 0,6.20320856 0,4 C0,1.79679144 1.79679144,0 4,0 C6.20320856,0 8,1.79679144 8,4 C8,6.20320856 6.20855615,8 4,8 Z M4,1.09625668 C2.40106952,1.09625668 1.10160428,2.39572193 1.10160428,3.99465241 C1.10160428,5.59358289 2.40106952,6.89304813 4,6.89304813 C5.59893048,6.89304813 6.89839572,5.59358289 6.89839572,3.99465241 C6.89839572,2.39572193 5.59893048,1.09625668 4,1.09625668 Z" id="形状备份-2" fill="url(#linearGradient-5)" opacity="0.210814862"></path>
                </g>
            </g>
        </g>
    </g>
</svg>