<?xml version="1.0" encoding="UTF-8"?>
<svg width="55px" height="50px" viewBox="0 0 55 50" version="1.1" xmlns="http://www.w3.org/2000/svg" xmlns:xlink="http://www.w3.org/1999/xlink">
    <title>Template Market LOGO</title>
    <defs>
        <radialGradient cx="0%" cy="9.60170324%" fx="0%" fy="9.60170324%" r="172.690049%" gradientTransform="translate(0.000000,0.096017),scale(0.862069,1.000000),rotate(42.071891),translate(-0.000000,-0.096017)" id="radialGradient-1">
            <stop stop-color="#CAEBFA" offset="0%"></stop>
            <stop stop-color="#5C64FF" offset="100%"></stop>
        </radialGradient>
        <linearGradient x1="90.2755853%" y1="8.97759647%" x2="15.5246844%" y2="91.2580894%" id="linearGradient-2">
            <stop stop-color="#40ECE1" offset="0%"></stop>
            <stop stop-color="#5C64FF" offset="100%"></stop>
        </linearGradient>
        <linearGradient x1="100%" y1="28.4433493%" x2="19.6374359%" y2="83.5714894%" id="linearGradient-3">
            <stop stop-color="#36BEFF" offset="24.238%"></stop>
            <stop stop-color="#733FF1" offset="100%"></stop>
        </linearGradient>
        <linearGradient x1="16.3947615%" y1="0%" x2="78.440441%" y2="79.1775733%" id="linearGradient-4">
            <stop stop-color="#5C64FF" offset="0%"></stop>
            <stop stop-color="#C4E4FA" offset="100%"></stop>
        </linearGradient>
        <linearGradient x1="26.4111171%" y1="17.375958%" x2="100%" y2="79.6542337%" id="linearGradient-5">
            <stop stop-color="#4FC8F8" offset="0%"></stop>
            <stop stop-color="#733FF1" offset="100%"></stop>
        </linearGradient>
    </defs>
    <g id="Template-Market-LOGO" stroke="none" stroke-width="1" fill="none" fill-rule="evenodd">
        <g id="renwumoban" transform="translate(1.000000, 0.000000)" fill-rule="nonzero">
            <path d="M29.5081604,47.5836824 L7.00273193,47.5836824 C5.76244733,47.5836824 4.69700461,46.8666081 4.69700461,46.03186 L4.69700461,25.7588815 C4.69700461,24.9241334 5.76244733,24.2070591 7.00273193,24.2070591 L29.5081604,24.2070591 C30.748445,24.2070591 31.8138877,24.9241334 31.8138877,25.7588815 L31.8138877,46.1532111 C31.8138877,46.9879592 30.748445,47.5836824 29.5081604,47.5836824 Z" id="路径" fill="url(#radialGradient-1)"></path>
            <path d="M12.9648356,41.0615574 C11.7344994,41.0615574 10.6776026,40.0046607 10.6776026,38.7743245 L10.7127147,11.699285 C10.7127147,10.4689488 11.7696114,9.41205208 12.9999476,9.41205208 L40.9352482,9.41205208 C42.1655844,9.41205208 43.2224811,10.4689488 43.2224811,11.699285 L43.1873691,38.7743245 C43.1873691,40.0046607 42.1358923,41.0615574 40.9055561,41.0615574 L12.9648356,41.0615574 Z" id="路径" fill="url(#linearGradient-2)" opacity="0.768963481"></path>
            <path d="M35.1085306,33.0397465 L18.7618611,33.0397465 C18.2361227,33.0397465 17.8838238,32.6874476 17.8838238,32.1617093 L17.8838238,31.9882698 C17.8838238,31.4625314 18.2361227,31.1102325 18.7618611,31.1102325 L35.1085306,31.1102325 C35.634269,31.1102325 35.9865679,31.4625314 35.9865679,31.9882698 L35.9865679,32.1617093 C35.9865679,32.6874476 35.6396889,33.0397465 35.1085306,33.0397465 Z M35.1085306,26.5357667 L18.7618611,26.5357667 C18.2361227,26.5357667 17.8838238,26.1834677 17.8838238,25.6577294 L17.8838238,25.4842899 C17.8838238,24.9585515 18.2361227,24.6062526 18.7618611,24.6062526 L35.1085306,24.6062526 C35.634269,24.6062526 35.9865679,24.9585515 35.9865679,25.4842899 L35.9865679,25.6577294 C35.9865679,26.1834677 35.6396889,26.5357667 35.1085306,26.5357667 Z M35.1085306,20.0317868 L18.7618611,20.0317868 C18.2361227,20.0317868 17.8838238,19.6794879 17.8838238,19.1537495 L17.8838238,18.98031 C17.8838238,18.4545716 18.2361227,18.1022727 18.7618611,18.1022727 L35.1085306,18.1022727 C35.634269,18.1022727 35.9865679,18.4545716 35.9865679,18.98031 L35.9865679,19.1537495 C35.9865679,19.6794879 35.6396889,20.0317868 35.1085306,20.0317868 Z" id="形状" fill="#FFFFFF" opacity="0.641101926"></path>
            <path d="M30.7166706,27.0485442 C29.6474598,27.0485442 28.7289747,26.2210337 28.7289747,25.2577266 L28.7289747,13.4901026 C28.7289747,12.5267955 29.6474598,11.699285 30.7166706,11.699285 L50.1179021,11.699285 C51.1871129,11.699285 52.105598,12.5267955 52.105598,13.4901026 L52.105598,25.2577266 C52.1008879,26.2210337 51.1871129,27.0485442 50.1179021,27.0485442 L30.7166706,27.0485442 Z" id="路径" fill-opacity="0.64" fill="url(#linearGradient-3)"></path>
            <path d="M0.935064935,18.2337662 C0.935064935,20.5576657 2.81895768,22.4415584 5.14285714,22.4415584 C7.46675661,22.4415584 9.35064935,20.5576657 9.35064935,18.2337662 C9.35064935,15.9098668 7.46675661,14.025974 5.14285714,14.025974 C2.81895768,14.025974 0.935064935,15.9098668 0.935064935,18.2337662 Z" id="路径" fill="url(#linearGradient-4)" opacity="0.404932776"></path>
            <g id="编组-2" transform="translate(35.532468, 0.000000)">
                <path d="M0.765053129,4.20779221 C0.765053129,6.1091645 2.30641992,7.65053129 4.20779221,7.65053129 C6.1091645,7.65053129 7.65053129,6.1091645 7.65053129,4.20779221 C7.65053129,2.30641992 6.1091645,0.765053129 4.20779221,0.765053129 C2.30641992,0.765053129 0.765053129,2.30641992 0.765053129,4.20779221 Z" id="路径备份" fill="url(#linearGradient-4)" opacity="0.9"></path>
                <path d="M4.20779221,8.41558442 C1.89013126,8.41558442 0,6.52545316 0,4.20779221 C0,1.89013126 1.89013126,0 4.20779221,0 C6.52545316,0 8.41558442,1.89013126 8.41558442,4.20779221 C8.41558442,6.52545316 6.53107855,8.41558442 4.20779221,8.41558442 Z M4.20779221,1.15320508 C2.5258004,1.15320508 1.15883047,2.52017501 1.15883047,4.20216682 C1.15883047,5.88415862 2.5258004,7.25112855 4.20779221,7.25112855 C5.88978401,7.25112855 7.25675394,5.88415862 7.25675394,4.20216682 C7.25675394,2.52017501 5.88978401,1.15320508 4.20779221,1.15320508 Z" id="形状备份" fill="url(#linearGradient-5)" opacity="0.3"></path>
            </g>
            <g id="编组" transform="translate(45.818182, 35.532468)">
                <path d="M0.623376623,2.80519481 C0.623376623,4.01017971 1.6002099,4.98701299 2.80519481,4.98701299 C4.01017971,4.98701299 4.98701299,4.01017971 4.98701299,2.80519481 C4.98701299,1.6002099 4.01017971,0.623376623 2.80519481,0.623376623 C1.6002099,0.623376623 0.623376623,1.6002099 0.623376623,2.80519481 Z" id="路径备份-2" fill="url(#linearGradient-4)" opacity="0.9"></path>
                <path d="M2.80519481,5.61038961 C1.26008751,5.61038961 0,4.3503021 0,2.80519481 C0,1.26008751 1.26008751,0 2.80519481,0 C4.3503021,0 5.61038961,1.26008751 5.61038961,2.80519481 C5.61038961,4.3503021 4.35405236,5.61038961 2.80519481,5.61038961 Z M2.80519481,0.768803389 C1.68386694,0.768803389 0.77255365,1.68011667 0.77255365,2.80144454 C0.77255365,3.92277241 1.68386694,4.8340857 2.80519481,4.8340857 C3.92652268,4.8340857 4.83783596,3.92277241 4.83783596,2.80144454 C4.83783596,1.68011667 3.92652268,0.768803389 2.80519481,0.768803389 Z" id="形状备份-2" fill="url(#linearGradient-5)" opacity="0.3"></path>
            </g>
            <path d="M5.14285714,23.3766234 C2.31016043,23.3766234 0,21.0664629 0,18.2337662 C0,15.4010695 2.31016043,13.0909091 5.14285714,13.0909091 C7.97555386,13.0909091 10.2857143,15.4010695 10.2857143,18.2337662 C10.2857143,21.0664629 7.98242934,23.3766234 5.14285714,23.3766234 Z M5.14285714,14.500382 C3.08708938,14.500382 1.41634836,16.171123 1.41634836,18.2268908 C1.41634836,20.2826585 3.08708938,21.9533995 5.14285714,21.9533995 C7.1986249,21.9533995 8.86936593,20.2826585 8.86936593,18.2268908 C8.86936593,16.171123 7.1986249,14.500382 5.14285714,14.500382 Z" id="形状" fill="url(#linearGradient-5)" opacity="0.210814862"></path>
        </g>
    </g>
</svg>